<svg xmlns="http://www.w3.org/2000/svg" viewBox="0 0 500 400"><defs><style>.cls-1{isolation:isolate;}.cls-13,.cls-2{fill:#eee;}.cls-2{opacity:0.46;mix-blend-mode:lighten;}.cls-3,.cls-6{fill:#32a4f9;}.cls-4{fill:#005eb8;}.cls-5{fill:#0a84f2;}.cls-6{stroke:#32a4f9;stroke-miterlimit:10;stroke-width:0.75px;}.cls-7{fill:#fbb040;}.cls-8{fill:#ed8b00;}.cls-9{fill:#fff;}.cls-10{fill:#f0f0f0;}.cls-11{fill:#034a6d;}.cls-12{fill:#ddd;}</style></defs><title>go-for-blockchain</title><g class="cls-1"><g id="Layer_1" data-name="Layer 1"><polygon class="cls-2" points="5.35 261.09 158.13 84.64 321.93 0 486 84.64 485.9 288.86 8.55 346.08 5.35 261.09"/><g class="cls-1"><polygon class="cls-3" points="204.71 264.89 181.5 278.38 158.13 264.89 181.34 251.4 204.71 264.89"/><polygon class="cls-4" points="204.71 264.89 204.65 288.86 181.43 302.35 181.5 278.38 204.71 264.89"/><polygon class="cls-5" points="181.5 278.38 181.43 302.35 158.06 288.86 158.13 264.89 181.5 278.38"/></g><g class="cls-1"><polygon class="cls-3" points="485.97 264.89 462.75 278.38 439.38 264.89 462.6 251.4 485.97 264.89"/><polygon class="cls-4" points="485.97 264.89 485.9 288.86 462.68 302.35 462.75 278.38 485.97 264.89"/><polygon class="cls-5" points="462.75 278.38 462.68 302.35 439.31 288.86 439.38 264.89 462.75 278.38"/></g><path class="cls-6" d="M450.5,279.91a.51.51,0,0,1-.24.69l-6.89,3.29a.51.51,0,0,1-.44-.93l6.89-3.29A.51.51,0,0,1,450.5,279.91Z"/><path class="cls-6" d="M439.36,283.38,442.3,282a1.67,1.67,0,0,1,1.46,0l1.06-.51a2.7,2.7,0,0,0-3-.43l-2.94,1.41a2.7,2.7,0,0,0-1.53,2.58l1.06-.51A1.67,1.67,0,0,1,439.36,283.38Z"/><path class="cls-6" d="M443.74,285l-2.94,1.41a1.67,1.67,0,0,1-1.46,0l-1.06.51a2.7,2.7,0,0,0,3,.43l2.94-1.41a2.7,2.7,0,0,0,1.53-2.58l-1.06.51A1.67,1.67,0,0,1,443.74,285Z"/><path class="cls-6" d="M422.61,295.09l-2.94,1.41a1.67,1.67,0,1,1-1.44-3l2.94-1.41a1.67,1.67,0,0,1,1.46,0l1.06-.51a2.7,2.7,0,0,0-3-.43l-2.94,1.41a2.7,2.7,0,0,0,2.33,4.87l2.94-1.41a2.7,2.7,0,0,0,1.53-2.58l-1.06.51A1.67,1.67,0,0,1,422.61,295.09Z"/><path class="cls-6" d="M428.79,288.43l2.94-1.41a1.67,1.67,0,0,1,1.46,0l1.06-.51a2.7,2.7,0,0,0-3-.43l-2.94,1.41a2.7,2.7,0,0,0-1.53,2.58l1.06-.51A1.67,1.67,0,0,1,428.79,288.43Z"/><path class="cls-6" d="M433.18,290l-2.94,1.41a1.67,1.67,0,0,1-1.46,0l-1.06.51a2.7,2.7,0,0,0,3,.43l2.94-1.41a2.7,2.7,0,0,0,1.53-2.58l-1.06.51A1.67,1.67,0,0,1,433.18,290Z"/><path class="cls-6" d="M429.37,290a.51.51,0,0,1-.24.69L422.24,294a.51.51,0,1,1-.44-.93l6.89-3.29A.51.51,0,0,1,429.37,290Z"/><path class="cls-6" d="M439.94,285a.51.51,0,0,1-.24.69l-6.89,3.29a.51.51,0,0,1-.44-.93l6.89-3.29A.51.51,0,0,1,439.94,285Z"/><path class="cls-6" d="M418.22,293.48l2.94-1.41a1.67,1.67,0,0,1,1.46,0l1.06-.51a2.7,2.7,0,0,0-3-.43l-2.94,1.41a2.7,2.7,0,0,0-1.53,2.58l1.06-.51A1.67,1.67,0,0,1,418.22,293.48Z"/><path class="cls-6" d="M422.61,295.09l-2.94,1.41a1.67,1.67,0,0,1-1.46,0l-1.06.51a2.7,2.7,0,0,0,3,.43l2.94-1.41a2.7,2.7,0,0,0,1.53-2.58l-1.06.51A1.67,1.67,0,0,1,422.61,295.09Z"/><path class="cls-6" d="M407.66,298.54l2.94-1.41a1.67,1.67,0,0,1,1.46,0l1.06-.51a2.7,2.7,0,0,0-3-.43l-2.94,1.41a2.7,2.7,0,0,0-1.53,2.58l1.06-.51A1.67,1.67,0,0,1,407.66,298.54Z"/><path class="cls-6" d="M412,300.14l-2.94,1.41a1.67,1.67,0,0,1-1.46,0l-1.06.51a2.7,2.7,0,0,0,3,.43l2.94-1.41a2.7,2.7,0,0,0,1.53-2.58L413,299A1.67,1.67,0,0,1,412,300.14Z"/><path class="cls-6" d="M408.24,300.11a.51.51,0,0,1-.24.69l-6.89,3.29a.51.51,0,0,1-.44-.93l6.89-3.29A.51.51,0,0,1,408.24,300.11Z"/><path class="cls-6" d="M418.8,295.06a.51.51,0,0,1-.24.69L411.68,299a.51.51,0,0,1-.44-.93l6.89-3.29A.51.51,0,0,1,418.8,295.06Z"/><path class="cls-6" d="M397.09,303.59l2.94-1.41a1.67,1.67,0,0,1,1.46,0l1.06-.51a2.7,2.7,0,0,0-3-.43l-2.94,1.41a2.7,2.7,0,0,0-1.53,2.58l1.06-.51A1.67,1.67,0,0,1,397.09,303.59Z"/><path class="cls-6" d="M401.48,305.19l-2.94,1.41a1.67,1.67,0,0,1-1.46,0l-1.06.51a2.7,2.7,0,0,0,3,.43l2.94-1.41a2.7,2.7,0,0,0,1.53-2.58l-1.06.51A1.67,1.67,0,0,1,401.48,305.19Z"/><path class="cls-6" d="M386.53,308.64l2.94-1.41a1.67,1.67,0,0,1,1.46,0l1.06-.51a2.7,2.7,0,0,0-3-.43l-2.94,1.41a2.7,2.7,0,0,0-1.53,2.58l1.06-.51A1.67,1.67,0,0,1,386.53,308.64Z"/><path class="cls-6" d="M390.91,310.25,388,311.65a1.67,1.67,0,0,1-1.46,0l-1.06.51a2.7,2.7,0,0,0,3,.43l2.94-1.41a2.7,2.7,0,0,0,1.53-2.58l-1.06.51A1.67,1.67,0,0,1,390.91,310.25Z"/><path class="cls-6" d="M387.11,310.21a.51.51,0,0,1-.24.69L380,314.19a.51.51,0,0,1-.44-.93l6.89-3.29A.51.51,0,0,1,387.11,310.21Z"/><path class="cls-6" d="M397.67,305.16a.51.51,0,0,1-.24.69l-6.89,3.29a.51.51,0,0,1-.44-.93l6.89-3.29A.51.51,0,0,1,397.67,305.16Z"/><path class="cls-6" d="M376,313.69l2.94-1.41a1.67,1.67,0,0,1,1.46,0l1.06-.51a2.7,2.7,0,0,0-3-.43l-2.94,1.41a2.7,2.7,0,0,0-1.53,2.58l1.06-.51A1.67,1.67,0,0,1,376,313.69Z"/><path class="cls-6" d="M380.34,315.3l-2.94,1.41a1.67,1.67,0,0,1-1.46,0l-1.06.51a2.7,2.7,0,0,0,3,.43l2.94-1.41a2.7,2.7,0,0,0,1.53-2.58l-1.06.51A1.67,1.67,0,0,1,380.34,315.3Z"/><path class="cls-6" d="M365.39,318.74l2.94-1.41a1.67,1.67,0,0,1,1.46,0l1.06-.51a2.7,2.7,0,0,0-3-.43l-2.94,1.41a2.7,2.7,0,0,0-1.53,2.58l1.06-.51A1.67,1.67,0,0,1,365.39,318.74Z"/><path class="cls-6" d="M369.78,320.35l-2.94,1.41a1.67,1.67,0,0,1-1.46,0l-1.06.51a2.7,2.7,0,0,0,3,.43l2.94-1.41a2.7,2.7,0,0,0,1.53-2.58l-1.06.51A1.67,1.67,0,0,1,369.78,320.35Z"/><path class="cls-6" d="M366,320.32a.51.51,0,0,1-.24.69l-6.89,3.29a.51.51,0,0,1-.44-.93l6.89-3.29A.51.51,0,0,1,366,320.32Z"/><path class="cls-6" d="M376.54,315.26a.51.51,0,0,1-.24.69l-6.89,3.29a.51.51,0,1,1-.44-.93l6.89-3.29A.51.51,0,0,1,376.54,315.26Z"/><path class="cls-6" d="M354.83,323.79l2.94-1.41a1.67,1.67,0,0,1,1.46,0l1.06-.51a2.7,2.7,0,0,0-3-.43l-2.94,1.41a2.7,2.7,0,0,0-1.53,2.58l1.06-.51A1.67,1.67,0,0,1,354.83,323.79Z"/><path class="cls-6" d="M359.21,325.4l-2.94,1.41a1.67,1.67,0,0,1-1.46,0l-1.06.51a2.7,2.7,0,0,0,3,.43l2.94-1.41a2.7,2.7,0,0,0,1.53-2.58l-1.06.51A1.67,1.67,0,0,1,359.21,325.4Z"/><path class="cls-6" d="M344.26,328.84l2.94-1.41a1.67,1.67,0,0,1,1.46,0l1.06-.51a2.7,2.7,0,0,0-3-.43l-2.94,1.41a2.7,2.7,0,0,0-1.53,2.58l1.06-.51A1.67,1.67,0,0,1,344.26,328.84Z"/><path class="cls-6" d="M348.65,330.45l-2.94,1.41a1.67,1.67,0,0,1-1.46,0l-1.06.51a2.7,2.7,0,0,0,3,.43l2.94-1.41a2.7,2.7,0,0,0,1.53-2.58l-1.06.51A1.67,1.67,0,0,1,348.65,330.45Z"/><path class="cls-6" d="M344.84,330.42a.51.51,0,0,1-.24.69l-6.89,3.29a.51.51,0,0,1-.44-.93l6.89-3.29A.51.51,0,0,1,344.84,330.42Z"/><path class="cls-6" d="M355.41,325.37a.51.51,0,0,1-.24.69l-6.89,3.29a.51.51,0,1,1-.44-.93l6.89-3.29A.51.51,0,0,1,355.41,325.37Z"/><path class="cls-6" d="M333.69,333.9l2.94-1.41a1.67,1.67,0,0,1,1.46,0l1.06-.51a2.7,2.7,0,0,0-3-.43L333.25,333a2.7,2.7,0,0,0-1.53,2.58l1.06-.51A1.67,1.67,0,0,1,333.69,333.9Z"/><path class="cls-6" d="M338.08,335.5l-2.94,1.41a1.67,1.67,0,0,1-1.46,0l-1.06.51a2.7,2.7,0,0,0,3,.43l2.94-1.41a2.7,2.7,0,0,0,1.53-2.58l-1.06.51A1.67,1.67,0,0,1,338.08,335.5Z"/><path class="cls-6" d="M323.13,338.95l2.94-1.41a1.67,1.67,0,0,1,1.46,0l1.06-.51a2.7,2.7,0,0,0-3-.43L322.68,338a2.7,2.7,0,0,0-1.53,2.58l1.06-.51A1.67,1.67,0,0,1,323.13,338.95Z"/><path class="cls-6" d="M327.51,340.55,324.57,342a1.67,1.67,0,0,1-1.46,0l-1.06.51a2.7,2.7,0,0,0,3,.43l2.94-1.41a2.7,2.7,0,0,0,1.53-2.58l-1.06.51A1.67,1.67,0,0,1,327.51,340.55Z"/><path class="cls-6" d="M323.71,340.52a.51.51,0,0,1-.24.69l-6.89,3.29a.51.51,0,1,1-.44-.93l6.89-3.29A.51.51,0,0,1,323.71,340.52Z"/><path class="cls-6" d="M334.27,335.47a.51.51,0,0,1-.24.69l-6.89,3.29a.51.51,0,0,1-.44-.93l6.89-3.29A.51.51,0,0,1,334.27,335.47Z"/><path class="cls-6" d="M312.56,344l2.94-1.41a1.67,1.67,0,0,1,1.46,0l1.06-.51a2.7,2.7,0,0,0-3-.43l-2.94,1.41a2.7,2.7,0,0,0-1.53,2.58l1.06-.51A1.67,1.67,0,0,1,312.56,344Z"/><path class="cls-6" d="M316.95,345.61,314,347a1.67,1.67,0,0,1-1.46,0l-1.06.51a2.7,2.7,0,0,0,3,.43l2.94-1.41a2.7,2.7,0,0,0,1.53-2.58l-1.06.51A1.67,1.67,0,0,1,316.95,345.61Z"/><path class="cls-6" d="M302,349l2.94-1.41a1.67,1.67,0,0,1,1.46,0l1.06-.51a2.7,2.7,0,0,0-3-.43l-2.94,1.41a2.7,2.7,0,0,0-1.53,2.58l1.06-.51A1.67,1.67,0,0,1,302,349Z"/><path class="cls-6" d="M313.14,345.57a.51.51,0,0,1-.24.69L306,349.55a.51.51,0,0,1-.44-.93l6.89-3.29A.51.51,0,0,1,313.14,345.57Z"/><path class="cls-6" d="M306.2,336.33l2.92,1.46a1.67,1.67,0,0,1,.89,1.16l1.06.53a2.7,2.7,0,0,0-1.49-2.61l-2.92-1.46a2.7,2.7,0,0,0-3,.38l1.06.53A1.67,1.67,0,0,1,306.2,336.33Z"/><path class="cls-6" d="M307.62,340.78l-2.92-1.46a1.67,1.67,0,0,1-.89-1.16l-1.06-.53a2.7,2.7,0,0,0,1.49,2.61l2.92,1.46a2.7,2.7,0,0,0,3-.38l-1.06-.53A1.67,1.67,0,0,1,307.62,340.78Z"/><path class="cls-6" d="M305.31,337.75a.51.51,0,0,1-.69.23l-6.83-3.41a.51.51,0,1,1,.46-.92l6.83,3.41A.51.51,0,0,1,305.31,337.75Z"/><path class="cls-6" d="M315.79,343a.51.51,0,0,1-.69.23l-6.83-3.41a.51.51,0,0,1,.46-.92l6.83,3.41A.51.51,0,0,1,315.79,343Z"/><path class="cls-6" d="M295.72,331.1l2.92,1.46a1.67,1.67,0,0,1,.89,1.16l1.06.53a2.7,2.7,0,0,0-1.49-2.61l-2.92-1.46a2.7,2.7,0,0,0-3,.38l1.06.53A1.67,1.67,0,0,1,295.72,331.1Z"/><path class="cls-6" d="M297.14,335.55l-2.92-1.46a1.67,1.67,0,0,1-.89-1.16l-1.06-.53a2.7,2.7,0,0,0,1.49,2.61l2.92,1.46a2.7,2.7,0,0,0,3-.38l-1.06-.53A1.67,1.67,0,0,1,297.14,335.55Z"/><path class="cls-6" d="M285.24,325.87l2.92,1.46a1.67,1.67,0,0,1,.89,1.16l1.06.53a2.7,2.7,0,0,0-1.49-2.61L285.69,325a2.7,2.7,0,0,0-3,.38l1.06.53A1.67,1.67,0,0,1,285.24,325.87Z"/><path class="cls-6" d="M286.66,330.32l-2.92-1.46a1.67,1.67,0,0,1-.89-1.16l-1.06-.53a2.7,2.7,0,0,0,1.49,2.61l2.92,1.46a2.7,2.7,0,0,0,3-.38l-1.06-.53A1.67,1.67,0,0,1,286.66,330.32Z"/><path class="cls-6" d="M284.35,327.3a.51.51,0,0,1-.69.23l-6.83-3.41a.51.51,0,1,1,.46-.92l6.83,3.41A.51.51,0,0,1,284.35,327.3Z"/><path class="cls-6" d="M294.83,332.53a.51.51,0,0,1-.69.23l-6.83-3.41a.51.51,0,0,1,.46-.92l6.83,3.41A.51.51,0,0,1,294.83,332.53Z"/><path class="cls-6" d="M274.75,320.65l2.92,1.46a1.67,1.67,0,0,1,.89,1.16l1.06.53a2.7,2.7,0,0,0-1.49-2.61l-2.92-1.46a2.7,2.7,0,0,0-3,.38l1.06.53A1.67,1.67,0,0,1,274.75,320.65Z"/><path class="cls-6" d="M276.18,325.09l-2.92-1.46a1.67,1.67,0,0,1-.89-1.16l-1.06-.53a2.7,2.7,0,0,0,1.49,2.61l2.92,1.46a2.7,2.7,0,0,0,3-.38l-1.06-.53A1.67,1.67,0,0,1,276.18,325.09Z"/><path class="cls-6" d="M264.27,315.42l2.92,1.46a1.67,1.67,0,0,1,.89,1.16l1.06.53a2.7,2.7,0,0,0-1.49-2.61l-2.92-1.46a2.7,2.7,0,0,0-3,.38l1.06.53A1.67,1.67,0,0,1,264.27,315.42Z"/><path class="cls-6" d="M265.7,319.87l-2.92-1.46a1.67,1.67,0,0,1-.89-1.16l-1.06-.53a2.7,2.7,0,0,0,1.49,2.61l2.92,1.46a2.7,2.7,0,0,0,3-.38l-1.06-.53A1.67,1.67,0,0,1,265.7,319.87Z"/><path class="cls-6" d="M263.39,316.85a.51.51,0,0,1-.69.23l-6.83-3.41a.51.51,0,0,1,.46-.92l6.83,3.41A.51.51,0,0,1,263.39,316.85Z"/><path class="cls-6" d="M273.87,322.07a.51.51,0,0,1-.69.23l-6.83-3.41a.51.51,0,0,1,.46-.92l6.83,3.41A.51.51,0,0,1,273.87,322.07Z"/><path class="cls-6" d="M253.79,310.19l2.92,1.46a1.67,1.67,0,0,1,.89,1.16l1.06.53a2.7,2.7,0,0,0-1.49-2.61l-2.92-1.46a2.7,2.7,0,0,0-3,.38l1.06.53A1.67,1.67,0,0,1,253.79,310.19Z"/><path class="cls-6" d="M255.22,314.64l-2.92-1.46a1.67,1.67,0,0,1-.89-1.16l-1.06-.53a2.7,2.7,0,0,0,1.49,2.61l2.92,1.46a2.7,2.7,0,0,0,3-.38l-1.06-.53A1.67,1.67,0,0,1,255.22,314.64Z"/><path class="cls-6" d="M243.31,305l2.92,1.46a1.67,1.67,0,0,1,.89,1.16l1.06.53a2.7,2.7,0,0,0-1.49-2.61L243.77,304a2.7,2.7,0,0,0-3,.38l1.06.53A1.67,1.67,0,0,1,243.31,305Z"/><path class="cls-6" d="M244.74,309.41,241.82,308a1.67,1.67,0,0,1-.89-1.16l-1.06-.53a2.7,2.7,0,0,0,1.49,2.61l2.92,1.46a2.7,2.7,0,0,0,3-.38l-1.06-.53A1.67,1.67,0,0,1,244.74,309.41Z"/><path class="cls-6" d="M242.43,306.39a.51.51,0,0,1-.69.23l-6.83-3.41a.51.51,0,1,1,.46-.92l6.83,3.41A.51.51,0,0,1,242.43,306.39Z"/><path class="cls-6" d="M252.91,311.62a.51.51,0,0,1-.69.23l-6.83-3.41a.51.51,0,1,1,.46-.92l6.83,3.41A.51.51,0,0,1,252.91,311.62Z"/><path class="cls-6" d="M232.83,299.74l2.92,1.46a1.67,1.67,0,0,1,.89,1.16l1.06.53a2.7,2.7,0,0,0-1.49-2.61l-2.92-1.46a2.7,2.7,0,0,0-3,.38l1.06.53A1.67,1.67,0,0,1,232.83,299.74Z"/><path class="cls-6" d="M234.26,304.19l-2.92-1.46a1.67,1.67,0,0,1-.89-1.16L229.4,301a2.7,2.7,0,0,0,1.49,2.61l2.92,1.46a2.7,2.7,0,0,0,3-.38l-1.06-.53A1.67,1.67,0,0,1,234.26,304.19Z"/><path class="cls-6" d="M222.35,294.51l2.92,1.46a1.67,1.67,0,0,1,.89,1.16l1.06.53a2.7,2.7,0,0,0-1.49-2.61l-2.92-1.46a2.7,2.7,0,0,0-3,.38l1.06.53A1.67,1.67,0,0,1,222.35,294.51Z"/><path class="cls-6" d="M223.78,299l-2.92-1.46a1.67,1.67,0,0,1-.89-1.16l-1.06-.53a2.7,2.7,0,0,0,1.49,2.61l2.92,1.46a2.7,2.7,0,0,0,3-.38l-1.06-.53A1.67,1.67,0,0,1,223.78,299Z"/><path class="cls-6" d="M221.47,295.94a.51.51,0,0,1-.69.23l-6.83-3.41a.51.51,0,0,1,.46-.92l6.83,3.41A.51.51,0,0,1,221.47,295.94Z"/><path class="cls-6" d="M231.95,301.16a.51.51,0,0,1-.69.23L224.43,298a.51.51,0,1,1,.46-.92l6.83,3.41A.51.51,0,0,1,231.95,301.16Z"/><path class="cls-6" d="M211.87,289.28l2.92,1.46a1.67,1.67,0,0,1,.89,1.16l1.06.53a2.7,2.7,0,0,0-1.49-2.61l-2.92-1.46a2.7,2.7,0,0,0-3,.38l1.06.53A1.67,1.67,0,0,1,211.87,289.28Z"/><path class="cls-6" d="M213.3,293.73l-2.92-1.46a1.67,1.67,0,0,1-.89-1.16l-1.06-.53a2.7,2.7,0,0,0,1.49,2.61l2.92,1.46a2.7,2.7,0,0,0,3-.38l-1.06-.53A1.67,1.67,0,0,1,213.3,293.73Z"/><path class="cls-6" d="M201.39,284.06l2.92,1.46a1.67,1.67,0,0,1,.89,1.16l1.06.53a2.7,2.7,0,0,0-1.49-2.61l-2.92-1.46a2.7,2.7,0,0,0-3,.38l1.06.53A1.67,1.67,0,0,1,201.39,284.06Z"/><path class="cls-6" d="M202.82,288.5,199.9,287a1.67,1.67,0,0,1-.89-1.16l-1.06-.53a2.7,2.7,0,0,0,1.49,2.61l2.92,1.46a2.7,2.7,0,0,0,3-.38l-1.06-.53A1.67,1.67,0,0,1,202.82,288.5Z"/><path class="cls-6" d="M200.51,285.48a.51.51,0,0,1-.69.23L193,282.31a.51.51,0,0,1,.46-.92l6.83,3.41A.51.51,0,0,1,200.51,285.48Z"/><path class="cls-6" d="M211,290.71a.51.51,0,0,1-.69.23l-6.83-3.41a.51.51,0,1,1,.46-.92l6.83,3.41A.51.51,0,0,1,211,290.71Z"/><g class="cls-1"><polygon class="cls-3" points="345.3 325.59 322.09 339.08 298.72 325.59 321.93 312.1 345.3 325.59"/><polygon class="cls-4" points="345.3 325.59 345.24 349.56 322.02 363.05 322.09 339.08 345.3 325.59"/><polygon class="cls-5" points="322.09 339.08 322.02 363.05 298.65 349.56 298.72 325.59 322.09 339.08"/></g><path class="cls-6" d="M319.88,170.89v-3.26a1.67,1.67,0,0,1,.64-1.31v-1.18a2.7,2.7,0,0,0-1.67,2.49v3.26a2.7,2.7,0,0,0,1.67,2.49V172.2A1.67,1.67,0,0,1,319.88,170.89Z"/><path class="cls-6" d="M323.22,167.63v3.26a1.67,1.67,0,0,1-.64,1.31v1.18a2.7,2.7,0,0,0,1.67-2.49v-3.26a2.7,2.7,0,0,0-1.67-2.49v1.18A1.67,1.67,0,0,1,323.22,167.63Z"/><path class="cls-6" d="M319.88,182.6v-3.26a1.67,1.67,0,0,1,.64-1.31v-1.18a2.7,2.7,0,0,0-1.67,2.49v3.26a2.7,2.7,0,0,0,1.67,2.49v-1.18A1.67,1.67,0,0,1,319.88,182.6Z"/><path class="cls-6" d="M323.22,179.34v3.26a1.67,1.67,0,0,1-.64,1.31v1.18a2.7,2.7,0,0,0,1.67-2.49v-3.26a2.7,2.7,0,0,0-1.67-2.49V178A1.67,1.67,0,0,1,323.22,179.34Z"/><path class="cls-6" d="M321.55,182.76a.51.51,0,0,1,.51.51v7.63a.51.51,0,1,1-1,0v-7.63A.51.51,0,0,1,321.55,182.76Z"/><path class="cls-6" d="M321.55,171a.51.51,0,0,1,.51.51v7.63a.51.51,0,0,1-1,0v-7.63A.51.51,0,0,1,321.55,171Z"/><path class="cls-6" d="M319.88,194.31V191a1.67,1.67,0,0,1,.64-1.31v-1.18a2.7,2.7,0,0,0-1.67,2.49v3.26a2.7,2.7,0,0,0,1.67,2.49v-1.18A1.67,1.67,0,0,1,319.88,194.31Z"/><path class="cls-6" d="M323.22,191v3.26a1.67,1.67,0,0,1-.64,1.31v1.18a2.7,2.7,0,0,0,1.67-2.49V191a2.7,2.7,0,0,0-1.67-2.49v1.18A1.67,1.67,0,0,1,323.22,191Z"/><path class="cls-6" d="M319.88,206v-3.26a1.67,1.67,0,0,1,.64-1.31v-1.18a2.7,2.7,0,0,0-1.67,2.49V206a2.7,2.7,0,0,0,1.67,2.49v-1.18A1.67,1.67,0,0,1,319.88,206Z"/><path class="cls-6" d="M323.22,202.76V206a1.67,1.67,0,0,1-.64,1.31v1.18a2.7,2.7,0,0,0,1.67-2.49v-3.26a2.7,2.7,0,0,0-1.67-2.49v1.18A1.67,1.67,0,0,1,323.22,202.76Z"/><path class="cls-6" d="M321.55,206.18a.51.51,0,0,1,.51.51v7.63a.51.51,0,0,1-1,0v-7.63A.51.51,0,0,1,321.55,206.18Z"/><path class="cls-6" d="M321.55,194.47a.51.51,0,0,1,.51.51v7.63a.51.51,0,0,1-1,0V195A.51.51,0,0,1,321.55,194.47Z"/><path class="cls-6" d="M319.88,217.73v-3.26a1.67,1.67,0,0,1,.64-1.31V212a2.7,2.7,0,0,0-1.67,2.49v3.26a2.7,2.7,0,0,0,1.67,2.49V219A1.67,1.67,0,0,1,319.88,217.73Z"/><path class="cls-6" d="M323.22,214.47v3.26a1.67,1.67,0,0,1-.64,1.31v1.18a2.7,2.7,0,0,0,1.67-2.49v-3.26a2.7,2.7,0,0,0-1.67-2.49v1.18A1.67,1.67,0,0,1,323.22,214.47Z"/><path class="cls-6" d="M319.88,229.45v-3.26a1.67,1.67,0,0,1,.64-1.31v-1.18a2.7,2.7,0,0,0-1.67,2.49v3.26a2.7,2.7,0,0,0,1.67,2.49v-1.18A1.67,1.67,0,0,1,319.88,229.45Z"/><path class="cls-6" d="M323.22,226.18v3.26a1.67,1.67,0,0,1-.64,1.31v1.18a2.7,2.7,0,0,0,1.67-2.49v-3.26a2.7,2.7,0,0,0-1.67-2.49v1.18A1.67,1.67,0,0,1,323.22,226.18Z"/><path class="cls-6" d="M321.55,229.6a.51.51,0,0,1,.51.51v7.63a.51.51,0,1,1-1,0v-7.63A.51.51,0,0,1,321.55,229.6Z"/><path class="cls-6" d="M321.55,217.89a.51.51,0,0,1,.51.51V226a.51.51,0,1,1-1,0V218.4A.51.51,0,0,1,321.55,217.89Z"/><path class="cls-6" d="M319.88,241.16v-3.26a1.67,1.67,0,0,1,.64-1.31V235.4a2.7,2.7,0,0,0-1.67,2.49v3.26a2.7,2.7,0,0,0,1.67,2.49v-1.18A1.67,1.67,0,0,1,319.88,241.16Z"/><path class="cls-6" d="M323.22,237.89v3.26a1.67,1.67,0,0,1-.64,1.31v1.18a2.7,2.7,0,0,0,1.67-2.49v-3.26a2.7,2.7,0,0,0-1.67-2.49v1.18A1.67,1.67,0,0,1,323.22,237.89Z"/><path class="cls-6" d="M319.88,252.87v-3.26a1.67,1.67,0,0,1,.64-1.31v-1.18a2.7,2.7,0,0,0-1.67,2.49v3.26a2.7,2.7,0,0,0,1.67,2.49v-1.18A1.67,1.67,0,0,1,319.88,252.87Z"/><path class="cls-6" d="M323.22,249.61v3.26a1.67,1.67,0,0,1-.64,1.31v1.18a2.7,2.7,0,0,0,1.67-2.49v-3.26a2.7,2.7,0,0,0-1.67-2.49v1.18A1.67,1.67,0,0,1,323.22,249.61Z"/><path class="cls-6" d="M321.55,253a.51.51,0,0,1,.51.51v7.63a.51.51,0,0,1-1,0v-7.63A.51.51,0,0,1,321.55,253Z"/><path class="cls-6" d="M321.55,241.31a.51.51,0,0,1,.51.51v7.63a.51.51,0,1,1-1,0v-7.63A.51.51,0,0,1,321.55,241.31Z"/><path class="cls-6" d="M319.88,264.58v-3.26a1.67,1.67,0,0,1,.64-1.31v-1.18a2.7,2.7,0,0,0-1.67,2.49v3.26a2.7,2.7,0,0,0,1.67,2.49V265.9A1.67,1.67,0,0,1,319.88,264.58Z"/><path class="cls-6" d="M323.22,261.32v3.26a1.67,1.67,0,0,1-.64,1.31v1.18a2.7,2.7,0,0,0,1.67-2.49v-3.26a2.7,2.7,0,0,0-1.67-2.49V260A1.67,1.67,0,0,1,323.22,261.32Z"/><path class="cls-6" d="M319.88,276.29V273a1.67,1.67,0,0,1,.64-1.31v-1.18a2.7,2.7,0,0,0-1.67,2.49v3.26a2.7,2.7,0,0,0,1.67,2.49v-1.18A1.67,1.67,0,0,1,319.88,276.29Z"/><path class="cls-6" d="M323.22,273v3.26a1.67,1.67,0,0,1-.64,1.31v1.18a2.7,2.7,0,0,0,1.67-2.49V273a2.7,2.7,0,0,0-1.67-2.49v1.18A1.67,1.67,0,0,1,323.22,273Z"/><path class="cls-6" d="M321.55,276.45a.51.51,0,0,1,.51.51v7.63a.51.51,0,0,1-1,0V277A.51.51,0,0,1,321.55,276.45Z"/><path class="cls-6" d="M321.55,264.74a.51.51,0,0,1,.51.51v7.63a.51.51,0,0,1-1,0v-7.63A.51.51,0,0,1,321.55,264.74Z"/><path class="cls-6" d="M319.88,288v-3.26a1.67,1.67,0,0,1,.64-1.31v-1.18a2.7,2.7,0,0,0-1.67,2.49V288a2.7,2.7,0,0,0,1.67,2.49v-1.18A1.67,1.67,0,0,1,319.88,288Z"/><path class="cls-6" d="M323.22,284.74V288a1.67,1.67,0,0,1-.64,1.31v1.18a2.7,2.7,0,0,0,1.67-2.49v-3.26a2.7,2.7,0,0,0-1.67-2.49v1.18A1.67,1.67,0,0,1,323.22,284.74Z"/><path class="cls-6" d="M319.88,299.72v-3.26a1.67,1.67,0,0,1,.64-1.31V294a2.7,2.7,0,0,0-1.67,2.49v3.26a2.7,2.7,0,0,0,1.67,2.49V301A1.67,1.67,0,0,1,319.88,299.72Z"/><path class="cls-6" d="M323.22,296.45v3.26a1.67,1.67,0,0,1-.64,1.31v1.18a2.7,2.7,0,0,0,1.67-2.49v-3.26a2.7,2.7,0,0,0-1.67-2.49v1.18A1.67,1.67,0,0,1,323.22,296.45Z"/><path class="cls-6" d="M321.55,299.87a.51.51,0,0,1,.51.51V308a.51.51,0,0,1-1,0v-7.63A.51.51,0,0,1,321.55,299.87Z"/><path class="cls-6" d="M321.55,288.16a.51.51,0,0,1,.51.51v7.63a.51.51,0,0,1-1,0v-7.63A.51.51,0,0,1,321.55,288.16Z"/><path class="cls-6" d="M319.88,311.43v-3.26a1.67,1.67,0,0,1,.64-1.31v-1.18a2.7,2.7,0,0,0-1.67,2.49v3.26a2.7,2.7,0,0,0,1.67,2.49v-1.18A1.67,1.67,0,0,1,319.88,311.43Z"/><path class="cls-6" d="M323.22,308.16v3.26a1.67,1.67,0,0,1-.64,1.31v1.18a2.7,2.7,0,0,0,1.67-2.49v-3.26a2.7,2.7,0,0,0-1.67-2.49v1.18A1.67,1.67,0,0,1,323.22,308.16Z"/><path class="cls-6" d="M319.88,323.14v-3.26a1.67,1.67,0,0,1,.64-1.31v-1.18a2.7,2.7,0,0,0-1.67,2.49v3.26a2.7,2.7,0,0,0,1.67,2.49v-1.18A1.67,1.67,0,0,1,319.88,323.14Z"/><path class="cls-6" d="M323.22,319.88v3.26a1.67,1.67,0,0,1-.64,1.31v1.18a2.7,2.7,0,0,0,1.67-2.49v-3.26a2.7,2.7,0,0,0-1.67-2.49v1.18A1.67,1.67,0,0,1,323.22,319.88Z"/><path class="cls-6" d="M321.55,323.29a.51.51,0,0,1,.51.51v7.63a.51.51,0,0,1-1,0v-7.63A.51.51,0,0,1,321.55,323.29Z"/><path class="cls-6" d="M321.55,311.58a.51.51,0,0,1,.51.51v7.63a.51.51,0,0,1-1,0V312.1A.51.51,0,0,1,321.55,311.58Z"/><path class="cls-6" d="M179.67,207.35v-3.26a1.67,1.67,0,0,1,.64-1.31v-1.18a2.7,2.7,0,0,0-1.67,2.49v3.26a2.7,2.7,0,0,0,1.67,2.49v-1.18A1.67,1.67,0,0,1,179.67,207.35Z"/><path class="cls-6" d="M183,204.08v3.26a1.67,1.67,0,0,1-.64,1.31v1.18a2.7,2.7,0,0,0,1.67-2.49v-3.26a2.7,2.7,0,0,0-1.67-2.49v1.18A1.67,1.67,0,0,1,183,204.08Z"/><path class="cls-6" d="M181.34,207.5a.51.51,0,0,1,.51.51v7.63a.51.51,0,0,1-1,0V208A.51.51,0,0,1,181.34,207.5Z"/><path class="cls-6" d="M179.67,219.06v-3.26a1.67,1.67,0,0,1,.64-1.31V213.3a2.7,2.7,0,0,0-1.67,2.49v3.26a2.7,2.7,0,0,0,1.67,2.49v-1.18A1.67,1.67,0,0,1,179.67,219.06Z"/><path class="cls-6" d="M183,215.79v3.26a1.67,1.67,0,0,1-.64,1.31v1.18a2.7,2.7,0,0,0,1.67-2.49v-3.26a2.7,2.7,0,0,0-1.67-2.49v1.18A1.67,1.67,0,0,1,183,215.79Z"/><path class="cls-6" d="M179.67,230.77v-3.26a1.67,1.67,0,0,1,.64-1.31V225a2.7,2.7,0,0,0-1.67,2.49v3.26a2.7,2.7,0,0,0,1.67,2.49v-1.18A1.67,1.67,0,0,1,179.67,230.77Z"/><path class="cls-6" d="M183,227.51v3.26a1.67,1.67,0,0,1-.64,1.31v1.18a2.7,2.7,0,0,0,1.67-2.49v-3.26a2.7,2.7,0,0,0-1.67-2.49v1.18A1.67,1.67,0,0,1,183,227.51Z"/><path class="cls-6" d="M181.34,230.92a.51.51,0,0,1,.51.51v7.63a.51.51,0,0,1-1,0v-7.63A.51.51,0,0,1,181.34,230.92Z"/><path class="cls-6" d="M181.34,219.21a.51.51,0,0,1,.51.51v7.63a.51.51,0,0,1-1,0v-7.63A.51.51,0,0,1,181.34,219.21Z"/><path class="cls-6" d="M179.67,242.48v-3.26a1.67,1.67,0,0,1,.64-1.31v-1.18a2.7,2.7,0,0,0-1.67,2.49v3.26a2.7,2.7,0,0,0,1.67,2.49v-1.18A1.67,1.67,0,0,1,179.67,242.48Z"/><path class="cls-6" d="M183,239.22v3.26a1.67,1.67,0,0,1-.64,1.31V245a2.7,2.7,0,0,0,1.67-2.49v-3.26a2.7,2.7,0,0,0-1.67-2.49v1.18A1.67,1.67,0,0,1,183,239.22Z"/><path class="cls-6" d="M179.67,254.19v-3.26a1.67,1.67,0,0,1,.64-1.31v-1.18a2.7,2.7,0,0,0-1.67,2.49v3.26a2.7,2.7,0,0,0,1.67,2.49v-1.18A1.67,1.67,0,0,1,179.67,254.19Z"/><path class="cls-6" d="M183,250.93v3.26a1.67,1.67,0,0,1-.64,1.31v1.18a2.7,2.7,0,0,0,1.67-2.49v-3.26a2.7,2.7,0,0,0-1.67-2.49v1.18A1.67,1.67,0,0,1,183,250.93Z"/><path class="cls-6" d="M181.34,254.35a.51.51,0,0,1,.51.51v7.63a.51.51,0,0,1-1,0v-7.63A.51.51,0,0,1,181.34,254.35Z"/><path class="cls-6" d="M181.34,242.64a.51.51,0,0,1,.51.51v7.63a.51.51,0,0,1-1,0v-7.63A.51.51,0,0,1,181.34,242.64Z"/><g class="cls-1"><polygon class="cls-3" points="204.71 174.76 181.5 188.25 158.13 174.76 181.34 161.27 204.71 174.76"/><polygon class="cls-4" points="204.71 174.76 204.65 198.74 181.43 212.23 181.5 188.25 204.71 174.76"/><polygon class="cls-5" points="181.5 188.25 181.43 212.23 158.06 198.74 158.13 174.76 181.5 188.25"/></g><path class="cls-6" d="M181.34,74.6a.51.51,0,0,1,.51.51v7.63a.51.51,0,0,1-1,0V75.11A.51.51,0,0,1,181.34,74.6Z"/><path class="cls-6" d="M179.67,86.15V82.89a1.67,1.67,0,0,1,.64-1.31V80.39a2.7,2.7,0,0,0-1.67,2.49v3.26a2.7,2.7,0,0,0,1.67,2.49V87.47A1.67,1.67,0,0,1,179.67,86.15Z"/><path class="cls-6" d="M183,82.89v3.26a1.67,1.67,0,0,1-.64,1.31v1.18A2.7,2.7,0,0,0,184,86.15V82.89a2.7,2.7,0,0,0-1.67-2.49v1.18A1.67,1.67,0,0,1,183,82.89Z"/><path class="cls-6" d="M179.67,97.86V94.6a1.67,1.67,0,0,1,.64-1.31V92.11a2.7,2.7,0,0,0-1.67,2.49v3.26a2.7,2.7,0,0,0,1.67,2.49V99.18A1.67,1.67,0,0,1,179.67,97.86Z"/><path class="cls-6" d="M183,94.6v3.26a1.67,1.67,0,0,1-.64,1.31v1.18A2.7,2.7,0,0,0,184,97.86V94.6a2.7,2.7,0,0,0-1.67-2.49v1.18A1.67,1.67,0,0,1,183,94.6Z"/><path class="cls-6" d="M181.34,98a.51.51,0,0,1,.51.51v7.63a.51.51,0,1,1-1,0V98.53A.51.51,0,0,1,181.34,98Z"/><path class="cls-6" d="M181.34,86.31a.51.51,0,0,1,.51.51v7.63a.51.51,0,0,1-1,0V86.82A.51.51,0,0,1,181.34,86.31Z"/><path class="cls-6" d="M179.67,109.57v-3.26a1.67,1.67,0,0,1,.64-1.31v-1.18a2.7,2.7,0,0,0-1.67,2.49v3.26a2.7,2.7,0,0,0,1.67,2.49v-1.18A1.67,1.67,0,0,1,179.67,109.57Z"/><path class="cls-6" d="M183,106.31v3.26a1.67,1.67,0,0,1-.64,1.31v1.18a2.7,2.7,0,0,0,1.67-2.49v-3.26a2.7,2.7,0,0,0-1.67-2.49V105A1.67,1.67,0,0,1,183,106.31Z"/><path class="cls-6" d="M179.67,121.29V118a1.67,1.67,0,0,1,.64-1.31v-1.18a2.7,2.7,0,0,0-1.67,2.49v3.26a2.7,2.7,0,0,0,1.67,2.49V122.6A1.67,1.67,0,0,1,179.67,121.29Z"/><path class="cls-6" d="M183,118v3.26a1.67,1.67,0,0,1-.64,1.31v1.18a2.7,2.7,0,0,0,1.67-2.49V118a2.7,2.7,0,0,0-1.67-2.49v1.18A1.67,1.67,0,0,1,183,118Z"/><path class="cls-6" d="M181.34,121.44a.51.51,0,0,1,.51.51v7.63a.51.51,0,0,1-1,0V122A.51.51,0,0,1,181.34,121.44Z"/><path class="cls-6" d="M181.34,109.73a.51.51,0,0,1,.51.51v7.63a.51.51,0,0,1-1,0v-7.63A.51.51,0,0,1,181.34,109.73Z"/><path class="cls-6" d="M179.67,133v-3.26a1.67,1.67,0,0,1,.64-1.31v-1.18a2.7,2.7,0,0,0-1.67,2.49V133a2.7,2.7,0,0,0,1.67,2.49v-1.18A1.67,1.67,0,0,1,179.67,133Z"/><path class="cls-6" d="M183,129.73V133a1.67,1.67,0,0,1-.64,1.31v1.18A2.7,2.7,0,0,0,184,133v-3.26a2.7,2.7,0,0,0-1.67-2.49v1.18A1.67,1.67,0,0,1,183,129.73Z"/><path class="cls-6" d="M179.67,144.71v-3.26a1.67,1.67,0,0,1,.64-1.31V139a2.7,2.7,0,0,0-1.67,2.49v3.26a2.7,2.7,0,0,0,1.67,2.49V146A1.67,1.67,0,0,1,179.67,144.71Z"/><path class="cls-6" d="M183,141.45v3.26a1.67,1.67,0,0,1-.64,1.31v1.18a2.7,2.7,0,0,0,1.67-2.49v-3.26a2.7,2.7,0,0,0-1.67-2.49v1.18A1.67,1.67,0,0,1,183,141.45Z"/><path class="cls-6" d="M181.34,144.87a.51.51,0,0,1,.51.51V153a.51.51,0,0,1-1,0v-7.63A.51.51,0,0,1,181.34,144.87Z"/><path class="cls-6" d="M181.34,133.15a.51.51,0,0,1,.51.51v7.63a.51.51,0,1,1-1,0v-7.63A.51.51,0,0,1,181.34,133.15Z"/><path class="cls-6" d="M179.67,156.42v-3.26a1.67,1.67,0,0,1,.64-1.31v-1.18a2.7,2.7,0,0,0-1.67,2.49v3.26a2.7,2.7,0,0,0,1.67,2.49v-1.18A1.67,1.67,0,0,1,179.67,156.42Z"/><path class="cls-6" d="M183,153.16v3.26a1.67,1.67,0,0,1-.64,1.31v1.18a2.7,2.7,0,0,0,1.67-2.49v-3.26a2.7,2.7,0,0,0-1.67-2.49v1.18A1.67,1.67,0,0,1,183,153.16Z"/><path class="cls-6" d="M179.67,168.13v-3.26a1.67,1.67,0,0,1,.64-1.31v-1.18a2.7,2.7,0,0,0-1.67,2.49v3.26a2.7,2.7,0,0,0,1.67,2.49v-1.18A1.67,1.67,0,0,1,179.67,168.13Z"/><path class="cls-6" d="M183,164.87v3.26a1.67,1.67,0,0,1-.64,1.31v1.18a2.7,2.7,0,0,0,1.67-2.49v-3.26a2.7,2.7,0,0,0-1.67-2.49v1.18A1.67,1.67,0,0,1,183,164.87Z"/><path class="cls-6" d="M181.34,168.29a.51.51,0,0,1,.51.51v7.63a.51.51,0,0,1-1,0V168.8A.51.51,0,0,1,181.34,168.29Z"/><path class="cls-6" d="M181.34,156.58a.51.51,0,0,1,.51.51v7.63a.51.51,0,1,1-1,0v-7.63A.51.51,0,0,1,181.34,156.58Z"/><g class="cls-1"><polygon class="cls-3" points="364.55 159.72 322.72 184.03 280.61 159.71 322.44 135.4 364.55 159.72"/><polygon class="cls-4" points="364.55 159.72 364.43 202.92 322.6 227.23 322.72 184.03 364.55 159.72"/><polygon class="cls-5" points="322.72 184.03 322.6 227.23 280.48 202.92 280.61 159.71 322.72 184.03"/></g><path class="cls-6" d="M295.16,192.74h3.26a1.67,1.67,0,0,1,1.31.64h1.18a2.7,2.7,0,0,0-2.49-1.67h-3.26a2.7,2.7,0,0,0-2.49,1.67h1.18A1.67,1.67,0,0,1,295.16,192.74Z"/><path class="cls-6" d="M298.42,196.09h-3.26a1.67,1.67,0,0,1-1.31-.64h-1.18a2.7,2.7,0,0,0,2.49,1.67h3.26a2.7,2.7,0,0,0,2.49-1.67h-1.18A1.67,1.67,0,0,1,298.42,196.09Z"/><path class="cls-6" d="M295,194.42a.51.51,0,0,1-.51.51h-7.63a.51.51,0,1,1,0-1h7.63A.51.51,0,0,1,295,194.42Z"/><path class="cls-6" d="M306.71,194.42a.51.51,0,0,1-.51.51h-7.63a.51.51,0,0,1,0-1h7.63A.51.51,0,0,1,306.71,194.42Z"/><path class="cls-6" d="M283.45,192.74h3.26a1.67,1.67,0,0,1,1.31.64h1.18a2.7,2.7,0,0,0-2.49-1.67h-3.26a2.7,2.7,0,0,0-2.49,1.67h1.18A1.67,1.67,0,0,1,283.45,192.74Z"/><path class="cls-6" d="M286.71,196.09h-3.26a1.67,1.67,0,0,1-1.31-.64H281a2.7,2.7,0,0,0,2.49,1.67h3.26a2.7,2.7,0,0,0,2.49-1.67H288A1.67,1.67,0,0,1,286.71,196.09Z"/><path class="cls-6" d="M271.74,192.74H275a1.67,1.67,0,0,1,1.31.64h1.18a2.7,2.7,0,0,0-2.49-1.67h-3.26a2.7,2.7,0,0,0-2.49,1.67h1.18A1.67,1.67,0,0,1,271.74,192.74Z"/><path class="cls-6" d="M275,196.09h-3.26a1.67,1.67,0,0,1-1.31-.64h-1.18a2.7,2.7,0,0,0,2.49,1.67H275a2.7,2.7,0,0,0,2.49-1.67h-1.18A1.67,1.67,0,0,1,275,196.09Z"/><path class="cls-6" d="M271.58,194.42a.51.51,0,0,1-.51.51h-7.63a.51.51,0,0,1,0-1h7.63A.51.51,0,0,1,271.58,194.42Z"/><path class="cls-6" d="M283.29,194.42a.51.51,0,0,1-.51.51h-7.63a.51.51,0,1,1,0-1h7.63A.51.51,0,0,1,283.29,194.42Z"/><path class="cls-6" d="M260,192.74h3.26a1.67,1.67,0,0,1,1.31.64h1.18a2.7,2.7,0,0,0-2.49-1.67H260a2.7,2.7,0,0,0-2.49,1.67h1.18A1.67,1.67,0,0,1,260,192.74Z"/><path class="cls-6" d="M263.29,196.09H260a1.67,1.67,0,0,1-1.31-.64h-1.18a2.7,2.7,0,0,0,2.49,1.67h3.26a2.7,2.7,0,0,0,2.49-1.67H264.6A1.67,1.67,0,0,1,263.29,196.09Z"/><path class="cls-6" d="M248.31,192.74h3.26a1.67,1.67,0,0,1,1.31.64h1.18a2.7,2.7,0,0,0-2.49-1.67h-3.26a2.7,2.7,0,0,0-2.49,1.67H247A1.67,1.67,0,0,1,248.31,192.74Z"/><path class="cls-6" d="M251.58,196.09h-3.26a1.67,1.67,0,0,1-1.31-.64h-1.18a2.7,2.7,0,0,0,2.49,1.67h3.26a2.7,2.7,0,0,0,2.49-1.67h-1.18A1.67,1.67,0,0,1,251.58,196.09Z"/><path class="cls-6" d="M248.16,194.42a.51.51,0,0,1-.51.51H240a.51.51,0,0,1,0-1h7.63A.51.51,0,0,1,248.16,194.42Z"/><path class="cls-6" d="M259.87,194.42a.51.51,0,0,1-.51.51h-7.63a.51.51,0,0,1,0-1h7.63A.51.51,0,0,1,259.87,194.42Z"/><path class="cls-6" d="M236.6,192.74h3.26a1.67,1.67,0,0,1,1.31.64h1.18a2.7,2.7,0,0,0-2.49-1.67H236.6a2.7,2.7,0,0,0-2.49,1.67h1.18A1.67,1.67,0,0,1,236.6,192.74Z"/><path class="cls-6" d="M239.86,196.09H236.6a1.67,1.67,0,0,1-1.31-.64h-1.18a2.7,2.7,0,0,0,2.49,1.67h3.26a2.7,2.7,0,0,0,2.49-1.67h-1.18A1.67,1.67,0,0,1,239.86,196.09Z"/><path class="cls-6" d="M224.89,192.74h3.26a1.67,1.67,0,0,1,1.31.64h1.18a2.7,2.7,0,0,0-2.49-1.67h-3.26a2.7,2.7,0,0,0-2.49,1.67h1.18A1.67,1.67,0,0,1,224.89,192.74Z"/><path class="cls-6" d="M228.15,196.09h-3.26a1.67,1.67,0,0,1-1.31-.64h-1.18a2.7,2.7,0,0,0,2.49,1.67h3.26a2.7,2.7,0,0,0,2.49-1.67h-1.18A1.67,1.67,0,0,1,228.15,196.09Z"/><path class="cls-6" d="M224.73,194.42a.51.51,0,0,1-.51.51h-7.63a.51.51,0,1,1,0-1h7.63A.51.51,0,0,1,224.73,194.42Z"/><path class="cls-6" d="M236.44,194.42a.51.51,0,0,1-.51.51H228.3a.51.51,0,0,1,0-1h7.63A.51.51,0,0,1,236.44,194.42Z"/><path class="cls-6" d="M213.18,192.74h3.26a1.67,1.67,0,0,1,1.31.64h1.18a2.7,2.7,0,0,0-2.49-1.67h-3.26a2.7,2.7,0,0,0-2.49,1.67h1.18A1.67,1.67,0,0,1,213.18,192.74Z"/><path class="cls-6" d="M216.44,196.09h-3.26a1.67,1.67,0,0,1-1.31-.64h-1.18a2.7,2.7,0,0,0,2.49,1.67h3.26a2.7,2.7,0,0,0,2.49-1.67h-1.18A1.67,1.67,0,0,1,216.44,196.09Z"/><path class="cls-6" d="M201.47,192.74h3.26a1.67,1.67,0,0,1,1.31.64h1.18a2.7,2.7,0,0,0-2.49-1.67h-3.26a2.7,2.7,0,0,0-2.49,1.67h1.18A1.67,1.67,0,0,1,201.47,192.74Z"/><path class="cls-6" d="M204.73,196.09h-3.26a1.67,1.67,0,0,1-1.31-.64H199a2.7,2.7,0,0,0,2.49,1.67h3.26a2.7,2.7,0,0,0,2.49-1.67H206A1.67,1.67,0,0,1,204.73,196.09Z"/><path class="cls-6" d="M201.31,194.42a.51.51,0,0,1-.51.51h-7.63a.51.51,0,0,1,0-1h7.63A.51.51,0,0,1,201.31,194.42Z"/><path class="cls-6" d="M213,194.42a.51.51,0,0,1-.51.51h-7.63a.51.51,0,0,1,0-1h7.63A.51.51,0,0,1,213,194.42Z"/><path class="cls-6" d="M323.22,50.51v3.26a1.67,1.67,0,1,1-3.34,0V50.51a1.67,1.67,0,0,1,.64-1.31V48a2.7,2.7,0,0,0-1.67,2.49v3.26a2.7,2.7,0,1,0,5.4,0V50.51A2.7,2.7,0,0,0,322.58,48V49.2A1.67,1.67,0,0,1,323.22,50.51Z"/><path class="cls-6" d="M321.55,42.22a.51.51,0,0,1,.51.51v7.63a.51.51,0,0,1-1,0V42.73A.51.51,0,0,1,321.55,42.22Z"/><path class="cls-6" d="M319.88,53.77V50.51a1.67,1.67,0,0,1,.64-1.31V48a2.7,2.7,0,0,0-1.67,2.49v3.26a2.7,2.7,0,0,0,1.67,2.49V55.09A1.67,1.67,0,0,1,319.88,53.77Z"/><path class="cls-6" d="M323.22,50.51v3.26a1.67,1.67,0,0,1-.64,1.31v1.18a2.7,2.7,0,0,0,1.67-2.49V50.51A2.7,2.7,0,0,0,322.58,48V49.2A1.67,1.67,0,0,1,323.22,50.51Z"/><path class="cls-6" d="M319.88,65.48V62.22a1.67,1.67,0,0,1,.64-1.31V59.73a2.7,2.7,0,0,0-1.67,2.49v3.26A2.7,2.7,0,0,0,320.52,68V66.8A1.67,1.67,0,0,1,319.88,65.48Z"/><path class="cls-6" d="M323.22,62.22v3.26a1.67,1.67,0,0,1-.64,1.31V68a2.7,2.7,0,0,0,1.67-2.49V62.22a2.7,2.7,0,0,0-1.67-2.49v1.18A1.67,1.67,0,0,1,323.22,62.22Z"/><path class="cls-6" d="M321.55,65.64a.51.51,0,0,1,.51.51v7.63a.51.51,0,0,1-1,0V66.15A.51.51,0,0,1,321.55,65.64Z"/><path class="cls-6" d="M321.55,53.93a.51.51,0,0,1,.51.51v7.63a.51.51,0,0,1-1,0V54.44A.51.51,0,0,1,321.55,53.93Z"/><path class="cls-6" d="M319.88,77.2V73.93a1.67,1.67,0,0,1,.64-1.31V71.44a2.7,2.7,0,0,0-1.67,2.49V77.2a2.7,2.7,0,0,0,1.67,2.49V78.51A1.67,1.67,0,0,1,319.88,77.2Z"/><path class="cls-6" d="M323.22,73.93V77.2a1.67,1.67,0,0,1-.64,1.31v1.18a2.7,2.7,0,0,0,1.67-2.49V73.93a2.7,2.7,0,0,0-1.67-2.49v1.18A1.67,1.67,0,0,1,323.22,73.93Z"/><path class="cls-6" d="M319.88,88.91V85.65a1.67,1.67,0,0,1,.64-1.31V83.15a2.7,2.7,0,0,0-1.67,2.49v3.26a2.7,2.7,0,0,0,1.67,2.49V90.22A1.67,1.67,0,0,1,319.88,88.91Z"/><path class="cls-6" d="M323.22,85.65v3.26a1.67,1.67,0,0,1-.64,1.31V91.4a2.7,2.7,0,0,0,1.67-2.49V85.65a2.7,2.7,0,0,0-1.67-2.49v1.18A1.67,1.67,0,0,1,323.22,85.65Z"/><path class="cls-6" d="M321.55,89.06a.51.51,0,0,1,.51.51v7.63a.51.51,0,0,1-1,0V89.58A.51.51,0,0,1,321.55,89.06Z"/><path class="cls-6" d="M321.55,77.35a.51.51,0,0,1,.51.51V85.5a.51.51,0,1,1-1,0V77.87A.51.51,0,0,1,321.55,77.35Z"/><path class="cls-6" d="M319.88,100.62V97.36a1.67,1.67,0,0,1,.64-1.31V94.86a2.7,2.7,0,0,0-1.67,2.49v3.26a2.7,2.7,0,0,0,1.67,2.49v-1.18A1.67,1.67,0,0,1,319.88,100.62Z"/><path class="cls-6" d="M323.22,97.36v3.26a1.67,1.67,0,0,1-.64,1.31v1.18a2.7,2.7,0,0,0,1.67-2.49V97.36a2.7,2.7,0,0,0-1.67-2.49V96A1.67,1.67,0,0,1,323.22,97.36Z"/><path class="cls-6" d="M321.55,100.78a.51.51,0,0,1,.51.51v7.63a.51.51,0,1,1-1,0v-7.63A.51.51,0,0,1,321.55,100.78Z"/><path class="cls-6" d="M461,207.35v-3.26a1.67,1.67,0,0,1,.64-1.31v-1.18a2.7,2.7,0,0,0-1.67,2.49v3.26a2.7,2.7,0,0,0,1.67,2.49v-1.18A1.67,1.67,0,0,1,461,207.35Z"/><path class="cls-6" d="M464.3,204.08v3.26a1.67,1.67,0,0,1-.64,1.31v1.18a2.7,2.7,0,0,0,1.67-2.49v-3.26a2.7,2.7,0,0,0-1.67-2.49v1.18A1.67,1.67,0,0,1,464.3,204.08Z"/><path class="cls-6" d="M462.63,207.5a.51.51,0,0,1,.51.51v7.63a.51.51,0,1,1-1,0V208A.51.51,0,0,1,462.63,207.5Z"/><path class="cls-6" d="M461,219.06v-3.26a1.67,1.67,0,0,1,.64-1.31V213.3a2.7,2.7,0,0,0-1.67,2.49v3.26a2.7,2.7,0,0,0,1.67,2.49v-1.18A1.67,1.67,0,0,1,461,219.06Z"/><path class="cls-6" d="M464.3,215.79v3.26a1.67,1.67,0,0,1-.64,1.31v1.18a2.7,2.7,0,0,0,1.67-2.49v-3.26a2.7,2.7,0,0,0-1.67-2.49v1.18A1.67,1.67,0,0,1,464.3,215.79Z"/><path class="cls-6" d="M461,230.77v-3.26a1.67,1.67,0,0,1,.64-1.31V225a2.7,2.7,0,0,0-1.67,2.49v3.26a2.7,2.7,0,0,0,1.67,2.49v-1.18A1.67,1.67,0,0,1,461,230.77Z"/><path class="cls-6" d="M464.3,227.51v3.26a1.67,1.67,0,0,1-.64,1.31v1.18a2.7,2.7,0,0,0,1.67-2.49v-3.26a2.7,2.7,0,0,0-1.67-2.49v1.18A1.67,1.67,0,0,1,464.3,227.51Z"/><path class="cls-6" d="M462.63,230.92a.51.51,0,0,1,.51.51v7.63a.51.51,0,1,1-1,0v-7.63A.51.51,0,0,1,462.63,230.92Z"/><path class="cls-6" d="M462.63,219.21a.51.51,0,0,1,.51.51v7.63a.51.51,0,1,1-1,0v-7.63A.51.51,0,0,1,462.63,219.21Z"/><path class="cls-6" d="M461,242.48v-3.26a1.67,1.67,0,0,1,.64-1.31v-1.18a2.7,2.7,0,0,0-1.67,2.49v3.26A2.7,2.7,0,0,0,461.6,245v-1.18A1.67,1.67,0,0,1,461,242.48Z"/><path class="cls-6" d="M464.3,239.22v3.26a1.67,1.67,0,0,1-.64,1.31V245a2.7,2.7,0,0,0,1.67-2.49v-3.26a2.7,2.7,0,0,0-1.67-2.49v1.18A1.67,1.67,0,0,1,464.3,239.22Z"/><path class="cls-6" d="M461,254.19v-3.26a1.67,1.67,0,0,1,.64-1.31v-1.18a2.7,2.7,0,0,0-1.67,2.49v3.26a2.7,2.7,0,0,0,1.67,2.49v-1.18A1.67,1.67,0,0,1,461,254.19Z"/><path class="cls-6" d="M464.3,250.93v3.26a1.67,1.67,0,0,1-.64,1.31v1.18a2.7,2.7,0,0,0,1.67-2.49v-3.26a2.7,2.7,0,0,0-1.67-2.49v1.18A1.67,1.67,0,0,1,464.3,250.93Z"/><path class="cls-6" d="M462.63,254.35a.51.51,0,0,1,.51.51v7.63a.51.51,0,1,1-1,0v-7.63A.51.51,0,0,1,462.63,254.35Z"/><path class="cls-6" d="M462.63,242.64a.51.51,0,0,1,.51.51v7.63a.51.51,0,1,1-1,0v-7.63A.51.51,0,0,1,462.63,242.64Z"/><g class="cls-1"><polygon class="cls-3" points="486 174.76 462.79 188.25 439.42 174.76 462.63 161.27 486 174.76"/><polygon class="cls-4" points="486 174.76 485.93 198.74 462.72 212.23 462.79 188.25 486 174.76"/><polygon class="cls-5" points="462.79 188.25 462.72 212.23 439.35 198.74 439.42 174.76 462.79 188.25"/></g><path class="cls-6" d="M462.63,74.6a.51.51,0,0,1,.51.51v7.63a.51.51,0,1,1-1,0V75.11A.51.51,0,0,1,462.63,74.6Z"/><path class="cls-6" d="M461,86.15V82.89a1.67,1.67,0,0,1,.64-1.31V80.39a2.7,2.7,0,0,0-1.67,2.49v3.26a2.7,2.7,0,0,0,1.67,2.49V87.47A1.67,1.67,0,0,1,461,86.15Z"/><path class="cls-6" d="M464.3,82.89v3.26a1.67,1.67,0,0,1-.64,1.31v1.18a2.7,2.7,0,0,0,1.67-2.49V82.89a2.7,2.7,0,0,0-1.67-2.49v1.18A1.67,1.67,0,0,1,464.3,82.89Z"/><path class="cls-6" d="M461,97.86V94.6a1.67,1.67,0,0,1,.64-1.31V92.11a2.7,2.7,0,0,0-1.67,2.49v3.26a2.7,2.7,0,0,0,1.67,2.49V99.18A1.67,1.67,0,0,1,461,97.86Z"/><path class="cls-6" d="M464.3,94.6v3.26a1.67,1.67,0,0,1-.64,1.31v1.18a2.7,2.7,0,0,0,1.67-2.49V94.6a2.7,2.7,0,0,0-1.67-2.49v1.18A1.67,1.67,0,0,1,464.3,94.6Z"/><path class="cls-6" d="M462.63,98a.51.51,0,0,1,.51.51v7.63a.51.51,0,1,1-1,0V98.53A.51.51,0,0,1,462.63,98Z"/><path class="cls-6" d="M462.63,86.31a.51.51,0,0,1,.51.51v7.63a.51.51,0,1,1-1,0V86.82A.51.51,0,0,1,462.63,86.31Z"/><path class="cls-6" d="M461,109.57v-3.26a1.67,1.67,0,0,1,.64-1.31v-1.18a2.7,2.7,0,0,0-1.67,2.49v3.26a2.7,2.7,0,0,0,1.67,2.49v-1.18A1.67,1.67,0,0,1,461,109.57Z"/><path class="cls-6" d="M464.3,106.31v3.26a1.67,1.67,0,0,1-.64,1.31v1.18a2.7,2.7,0,0,0,1.67-2.49v-3.26a2.7,2.7,0,0,0-1.67-2.49V105A1.67,1.67,0,0,1,464.3,106.31Z"/><path class="cls-6" d="M461,121.29V118a1.67,1.67,0,0,1,.64-1.31v-1.18a2.7,2.7,0,0,0-1.67,2.49v3.26a2.7,2.7,0,0,0,1.67,2.49V122.6A1.67,1.67,0,0,1,461,121.29Z"/><path class="cls-6" d="M464.3,118v3.26a1.67,1.67,0,0,1-.64,1.31v1.18a2.7,2.7,0,0,0,1.67-2.49V118a2.7,2.7,0,0,0-1.67-2.49v1.18A1.67,1.67,0,0,1,464.3,118Z"/><path class="cls-6" d="M462.63,121.44a.51.51,0,0,1,.51.51v7.63a.51.51,0,1,1-1,0V122A.51.51,0,0,1,462.63,121.44Z"/><path class="cls-6" d="M462.63,109.73a.51.51,0,0,1,.51.51v7.63a.51.51,0,1,1-1,0v-7.63A.51.51,0,0,1,462.63,109.73Z"/><path class="cls-6" d="M461,133v-3.26a1.67,1.67,0,0,1,.64-1.31v-1.18a2.7,2.7,0,0,0-1.67,2.49V133a2.7,2.7,0,0,0,1.67,2.49v-1.18A1.67,1.67,0,0,1,461,133Z"/><path class="cls-6" d="M464.3,129.73V133a1.67,1.67,0,0,1-.64,1.31v1.18a2.7,2.7,0,0,0,1.67-2.49v-3.26a2.7,2.7,0,0,0-1.67-2.49v1.18A1.67,1.67,0,0,1,464.3,129.73Z"/><path class="cls-6" d="M461,144.71v-3.26a1.67,1.67,0,0,1,.64-1.31V139a2.7,2.7,0,0,0-1.67,2.49v3.26a2.7,2.7,0,0,0,1.67,2.49V146A1.67,1.67,0,0,1,461,144.71Z"/><path class="cls-6" d="M464.3,141.45v3.26a1.67,1.67,0,0,1-.64,1.31v1.18a2.7,2.7,0,0,0,1.67-2.49v-3.26a2.7,2.7,0,0,0-1.67-2.49v1.18A1.67,1.67,0,0,1,464.3,141.45Z"/><path class="cls-6" d="M462.63,144.87a.51.51,0,0,1,.51.51V153a.51.51,0,1,1-1,0v-7.63A.51.51,0,0,1,462.63,144.87Z"/><path class="cls-6" d="M462.63,133.15a.51.51,0,0,1,.51.51v7.63a.51.51,0,1,1-1,0v-7.63A.51.51,0,0,1,462.63,133.15Z"/><path class="cls-6" d="M461,156.42v-3.26a1.67,1.67,0,0,1,.64-1.31v-1.18a2.7,2.7,0,0,0-1.67,2.49v3.26a2.7,2.7,0,0,0,1.67,2.49v-1.18A1.67,1.67,0,0,1,461,156.42Z"/><path class="cls-6" d="M464.3,153.16v3.26a1.67,1.67,0,0,1-.64,1.31v1.18a2.7,2.7,0,0,0,1.67-2.49v-3.26a2.7,2.7,0,0,0-1.67-2.49v1.18A1.67,1.67,0,0,1,464.3,153.16Z"/><path class="cls-6" d="M461,168.13v-3.26a1.67,1.67,0,0,1,.64-1.31v-1.18a2.7,2.7,0,0,0-1.67,2.49v3.26a2.7,2.7,0,0,0,1.67,2.49v-1.18A1.67,1.67,0,0,1,461,168.13Z"/><path class="cls-6" d="M464.3,164.87v3.26a1.67,1.67,0,0,1-.64,1.31v1.18a2.7,2.7,0,0,0,1.67-2.49v-3.26a2.7,2.7,0,0,0-1.67-2.49v1.18A1.67,1.67,0,0,1,464.3,164.87Z"/><path class="cls-6" d="M462.63,168.29a.51.51,0,0,1,.51.51v7.63a.51.51,0,1,1-1,0V168.8A.51.51,0,0,1,462.63,168.29Z"/><path class="cls-6" d="M462.63,156.58a.51.51,0,0,1,.51.51v7.63a.51.51,0,1,1-1,0v-7.63A.51.51,0,0,1,462.63,156.58Z"/><g class="cls-1"><polygon class="cls-3" points="345.3 13.49 322.09 26.98 298.72 13.49 321.93 0 345.3 13.49"/><polygon class="cls-4" points="345.3 13.49 345.24 37.47 322.02 50.96 322.09 26.98 345.3 13.49"/><polygon class="cls-5" points="322.09 26.98 322.02 50.96 298.65 37.47 298.72 13.49 322.09 26.98"/></g><path class="cls-6" d="M188.5,91.87a.51.51,0,0,1,.24-.69l6.89-3.29a.51.51,0,0,1,.44.93l-6.89,3.29A.51.51,0,0,1,188.5,91.87Z"/><path class="cls-6" d="M199.65,88.4,196.7,89.8a1.67,1.67,0,0,1-1.46,0l-1.06.51a2.7,2.7,0,0,0,3,.43l2.94-1.41a2.7,2.7,0,0,0,1.53-2.58l-1.06.51A1.67,1.67,0,0,1,199.65,88.4Z"/><path class="cls-6" d="M195.26,86.79l2.94-1.41a1.67,1.67,0,0,1,1.46,0l1.06-.51a2.7,2.7,0,0,0-3-.43l-2.94,1.41a2.7,2.7,0,0,0-1.53,2.58l1.06-.51A1.67,1.67,0,0,1,195.26,86.79Z"/><path class="cls-6" d="M216.39,76.69l2.94-1.41a1.67,1.67,0,1,1,1.44,3l-2.94,1.41a1.67,1.67,0,0,1-1.46,0l-1.06.51a2.7,2.7,0,0,0,3,.43l2.94-1.41a2.7,2.7,0,0,0-2.33-4.87l-2.94,1.41a2.7,2.7,0,0,0-1.53,2.58l1.06-.51A1.67,1.67,0,0,1,216.39,76.69Z"/><path class="cls-6" d="M210.21,83.34l-2.94,1.41a1.67,1.67,0,0,1-1.46,0l-1.06.51a2.7,2.7,0,0,0,3,.43l2.94-1.41a2.7,2.7,0,0,0,1.53-2.58l-1.06.51A1.67,1.67,0,0,1,210.21,83.34Z"/><path class="cls-6" d="M205.83,81.74l2.94-1.41a1.67,1.67,0,0,1,1.46,0l1.06-.51a2.7,2.7,0,0,0-3-.43l-2.94,1.41a2.7,2.7,0,0,0-1.53,2.58l1.06-.51A1.67,1.67,0,0,1,205.83,81.74Z"/><path class="cls-6" d="M209.63,81.77a.51.51,0,0,1,.24-.69l6.89-3.29a.51.51,0,0,1,.44.93L210.32,82A.51.51,0,0,1,209.63,81.77Z"/><path class="cls-6" d="M199.07,86.82a.51.51,0,0,1,.24-.69l6.89-3.29a.51.51,0,1,1,.44.93l-6.89,3.29A.51.51,0,0,1,199.07,86.82Z"/><path class="cls-6" d="M220.78,78.29l-2.94,1.41a1.67,1.67,0,0,1-1.46,0l-1.06.51a2.7,2.7,0,0,0,3,.43l2.94-1.41a2.7,2.7,0,0,0,1.53-2.58l-1.06.51A1.67,1.67,0,0,1,220.78,78.29Z"/><path class="cls-6" d="M216.39,76.69l2.94-1.41a1.67,1.67,0,0,1,1.46,0l1.06-.51a2.7,2.7,0,0,0-3-.43l-2.94,1.41a2.7,2.7,0,0,0-1.53,2.58l1.06-.51A1.67,1.67,0,0,1,216.39,76.69Z"/><path class="cls-6" d="M231.34,73.24l-2.94,1.41a1.67,1.67,0,0,1-1.46,0l-1.06.51a2.7,2.7,0,0,0,3,.43l2.94-1.41a2.7,2.7,0,0,0,1.53-2.58l-1.06.51A1.67,1.67,0,0,1,231.34,73.24Z"/><path class="cls-6" d="M227,71.63l2.94-1.41a1.67,1.67,0,0,1,1.46,0l1.06-.51a2.7,2.7,0,0,0-3-.43l-2.94,1.41A2.7,2.7,0,0,0,225,73.29l1.06-.51A1.67,1.67,0,0,1,227,71.63Z"/><path class="cls-6" d="M230.76,71.67A.51.51,0,0,1,231,71l6.89-3.29a.51.51,0,0,1,.44.93l-6.89,3.29A.51.51,0,0,1,230.76,71.67Z"/><path class="cls-6" d="M220.2,76.72a.51.51,0,0,1,.24-.69l6.89-3.29a.51.51,0,1,1,.44.93L220.88,77A.51.51,0,0,1,220.2,76.72Z"/><path class="cls-6" d="M241.91,68.19,239,69.6a1.67,1.67,0,0,1-1.46,0l-1.06.51a2.7,2.7,0,0,0,3,.43l2.94-1.41a2.7,2.7,0,0,0,1.53-2.58l-1.06.51A1.67,1.67,0,0,1,241.91,68.19Z"/><path class="cls-6" d="M237.52,66.58l2.94-1.41a1.67,1.67,0,0,1,1.46,0l1.06-.51a2.7,2.7,0,0,0-3-.43l-2.94,1.41a2.7,2.7,0,0,0-1.53,2.58l1.06-.51A1.67,1.67,0,0,1,237.52,66.58Z"/><path class="cls-6" d="M252.48,63.14l-2.94,1.41a1.67,1.67,0,0,1-1.46,0L247,65a2.7,2.7,0,0,0,3,.43l2.94-1.41a2.7,2.7,0,0,0,1.53-2.58l-1.06.51A1.67,1.67,0,0,1,252.48,63.14Z"/><path class="cls-6" d="M248.09,61.53,251,60.12a1.67,1.67,0,0,1,1.46,0l1.06-.51a2.7,2.7,0,0,0-3-.43l-2.94,1.41a2.7,2.7,0,0,0-1.53,2.58l1.06-.51A1.67,1.67,0,0,1,248.09,61.53Z"/><path class="cls-6" d="M251.9,61.56a.51.51,0,0,1,.24-.69L259,57.59a.51.51,0,1,1,.44.93l-6.89,3.29A.51.51,0,0,1,251.9,61.56Z"/><path class="cls-6" d="M241.33,66.62a.51.51,0,0,1,.24-.69l6.89-3.29a.51.51,0,0,1,.44.93L242,66.86A.51.51,0,0,1,241.33,66.62Z"/><path class="cls-6" d="M263,58.09,260.1,59.5a1.67,1.67,0,0,1-1.46,0l-1.06.51a2.7,2.7,0,0,0,3,.43L263.49,59A2.7,2.7,0,0,0,265,56.43l-1.06.51A1.67,1.67,0,0,1,263,58.09Z"/><path class="cls-6" d="M258.66,56.48l2.94-1.41a1.67,1.67,0,0,1,1.46,0l1.06-.51a2.7,2.7,0,0,0-3-.43l-2.94,1.41a2.7,2.7,0,0,0-1.53,2.58l1.06-.51A1.67,1.67,0,0,1,258.66,56.48Z"/><path class="cls-6" d="M273.61,53l-2.94,1.41a1.67,1.67,0,0,1-1.46,0l-1.06.51a2.7,2.7,0,0,0,3,.43L274.05,54a2.7,2.7,0,0,0,1.53-2.58l-1.06.51A1.67,1.67,0,0,1,273.61,53Z"/><path class="cls-6" d="M269.22,51.43,272.17,50a1.67,1.67,0,0,1,1.46,0l1.06-.51a2.7,2.7,0,0,0-3-.43l-2.94,1.41a2.7,2.7,0,0,0-1.53,2.58l1.06-.51A1.67,1.67,0,0,1,269.22,51.43Z"/><path class="cls-6" d="M273,51.46a.51.51,0,0,1,.24-.69l6.89-3.29a.51.51,0,1,1,.44.93l-6.89,3.29A.51.51,0,0,1,273,51.46Z"/><path class="cls-6" d="M262.46,56.51a.51.51,0,0,1,.24-.69l6.89-3.29a.51.51,0,1,1,.44.93l-6.89,3.29A.51.51,0,0,1,262.46,56.51Z"/><path class="cls-6" d="M284.17,48l-2.94,1.41a1.67,1.67,0,0,1-1.46,0l-1.06.51a2.7,2.7,0,0,0,3,.43l2.94-1.41a2.7,2.7,0,0,0,1.53-2.58l-1.06.51A1.67,1.67,0,0,1,284.17,48Z"/><path class="cls-6" d="M279.79,46.38,282.73,45a1.67,1.67,0,0,1,1.46,0l1.06-.51a2.7,2.7,0,0,0-3-.43l-2.94,1.41A2.7,2.7,0,0,0,277.82,48l1.06-.51A1.67,1.67,0,0,1,279.79,46.38Z"/><path class="cls-6" d="M294.74,42.93l-2.94,1.41a1.67,1.67,0,0,1-1.46,0l-1.06.51a2.7,2.7,0,0,0,3,.43l2.94-1.41a2.7,2.7,0,0,0,1.53-2.58l-1.06.51A1.67,1.67,0,0,1,294.74,42.93Z"/><path class="cls-6" d="M290.36,41.33l2.94-1.41a1.67,1.67,0,0,1,1.46,0l1.06-.51a2.7,2.7,0,0,0-3-.43l-2.94,1.41A2.7,2.7,0,0,0,288.38,43l1.06-.51A1.67,1.67,0,0,1,290.36,41.33Z"/><path class="cls-6" d="M294.16,41.36a.51.51,0,0,1,.24-.69l6.89-3.29a.51.51,0,0,1,.44.93l-6.89,3.29A.51.51,0,0,1,294.16,41.36Z"/><path class="cls-6" d="M283.59,46.41a.51.51,0,0,1,.24-.69l6.89-3.29a.51.51,0,0,1,.44.93l-6.89,3.29A.51.51,0,0,1,283.59,46.41Z"/><path class="cls-6" d="M305.31,37.88l-2.94,1.41a1.67,1.67,0,0,1-1.46,0l-1.06.51a2.7,2.7,0,0,0,3,.43l2.94-1.41a2.7,2.7,0,0,0,1.53-2.58l-1.06.51A1.67,1.67,0,0,1,305.31,37.88Z"/><path class="cls-6" d="M300.92,36.27l2.94-1.41a1.67,1.67,0,0,1,1.46,0l1.06-.51a2.7,2.7,0,0,0-3-.43l-2.94,1.41a2.7,2.7,0,0,0-1.53,2.58l1.06-.51A1.67,1.67,0,0,1,300.92,36.27Z"/><path class="cls-6" d="M304.73,36.31a.51.51,0,0,1,.24-.69l6.89-3.29a.51.51,0,1,1,.44.93l-6.89,3.29A.51.51,0,0,1,304.73,36.31Z"/><path class="cls-6" d="M341.31,39.7l-2.92-1.46a1.67,1.67,0,0,1-.89-1.16l-1.06-.53a2.7,2.7,0,0,0,1.49,2.61l2.92,1.46a2.7,2.7,0,0,0,3-.38l-1.06-.53A1.67,1.67,0,0,1,341.31,39.7Z"/><path class="cls-6" d="M339.88,35.26l2.92,1.46a1.67,1.67,0,0,1,.89,1.16l1.06.53a2.7,2.7,0,0,0-1.49-2.61l-2.92-1.46a2.7,2.7,0,0,0-3,.38l1.06.53A1.67,1.67,0,0,1,339.88,35.26Z"/><path class="cls-6" d="M342.2,38.28a.51.51,0,0,1,.69-.23l6.83,3.41a.51.51,0,0,1-.46.92L342.43,39A.51.51,0,0,1,342.2,38.28Z"/><path class="cls-6" d="M331.72,33.05a.51.51,0,0,1,.69-.23l6.83,3.41a.51.51,0,1,1-.46.92l-6.83-3.41A.51.51,0,0,1,331.72,33.05Z"/><path class="cls-6" d="M351.79,44.93l-2.92-1.46a1.67,1.67,0,0,1-.89-1.16l-1.06-.53a2.7,2.7,0,0,0,1.49,2.61l2.92,1.46a2.7,2.7,0,0,0,3-.38l-1.06-.53A1.67,1.67,0,0,1,351.79,44.93Z"/><path class="cls-6" d="M350.36,40.48l2.92,1.46a1.67,1.67,0,0,1,.89,1.16l1.06.53A2.7,2.7,0,0,0,353.74,41l-2.92-1.46a2.7,2.7,0,0,0-3,.38l1.06.53A1.67,1.67,0,0,1,350.36,40.48Z"/><path class="cls-6" d="M362.27,50.16l-2.92-1.46a1.67,1.67,0,0,1-.89-1.16L357.41,47a2.7,2.7,0,0,0,1.49,2.61l2.92,1.46a2.7,2.7,0,0,0,3-.38l-1.06-.53A1.67,1.67,0,0,1,362.27,50.16Z"/><path class="cls-6" d="M360.85,45.71l2.92,1.46a1.67,1.67,0,0,1,.89,1.16l1.06.53a2.7,2.7,0,0,0-1.49-2.61l-2.92-1.46a2.7,2.7,0,0,0-3,.38l1.06.53A1.67,1.67,0,0,1,360.85,45.71Z"/><path class="cls-6" d="M363.16,48.73a.51.51,0,0,1,.69-.23l6.83,3.41a.51.51,0,1,1-.46.92l-6.83-3.41A.51.51,0,0,1,363.16,48.73Z"/><path class="cls-6" d="M352.68,43.5a.51.51,0,0,1,.69-.23l6.83,3.41a.51.51,0,0,1-.46.92l-6.83-3.41A.51.51,0,0,1,352.68,43.5Z"/><path class="cls-6" d="M372.75,55.38l-2.92-1.46a1.67,1.67,0,0,1-.89-1.16l-1.06-.53a2.7,2.7,0,0,0,1.49,2.61l2.92,1.46a2.7,2.7,0,0,0,3-.38l-1.06-.53A1.67,1.67,0,0,1,372.75,55.38Z"/><path class="cls-6" d="M371.33,50.94l2.92,1.46a1.67,1.67,0,0,1,.89,1.16l1.06.53a2.7,2.7,0,0,0-1.49-2.61L371.78,50a2.7,2.7,0,0,0-3,.38l1.06.53A1.67,1.67,0,0,1,371.33,50.94Z"/><path class="cls-6" d="M383.23,60.61l-2.92-1.46a1.67,1.67,0,0,1-.89-1.16l-1.06-.53a2.7,2.7,0,0,0,1.49,2.61l2.92,1.46a2.7,2.7,0,0,0,3-.38l-1.06-.53A1.67,1.67,0,0,1,383.23,60.61Z"/><path class="cls-6" d="M381.81,56.16l2.92,1.46a1.67,1.67,0,0,1,.89,1.16l1.06.53a2.7,2.7,0,0,0-1.49-2.61l-2.92-1.46a2.7,2.7,0,0,0-3,.38l1.06.53A1.67,1.67,0,0,1,381.81,56.16Z"/><path class="cls-6" d="M384.12,59.19a.51.51,0,0,1,.69-.23l6.83,3.41a.51.51,0,0,1-.46.92l-6.83-3.41A.51.51,0,0,1,384.12,59.19Z"/><path class="cls-6" d="M373.64,54a.51.51,0,0,1,.69-.23l6.83,3.41a.51.51,0,0,1-.46.92l-6.83-3.41A.51.51,0,0,1,373.64,54Z"/><path class="cls-6" d="M393.71,65.84l-2.92-1.46a1.67,1.67,0,0,1-.89-1.16l-1.06-.53a2.7,2.7,0,0,0,1.49,2.61l2.92,1.46a2.7,2.7,0,0,0,3-.38l-1.06-.53A1.67,1.67,0,0,1,393.71,65.84Z"/><path class="cls-6" d="M392.29,61.39l2.92,1.46A1.67,1.67,0,0,1,396.1,64l1.06.53a2.7,2.7,0,0,0-1.49-2.61l-2.92-1.46a2.7,2.7,0,0,0-3,.38l1.06.53A1.67,1.67,0,0,1,392.29,61.39Z"/><path class="cls-6" d="M404.19,71.07l-2.92-1.46a1.67,1.67,0,0,1-.89-1.16l-1.06-.53a2.7,2.7,0,0,0,1.49,2.61L403.74,72a2.7,2.7,0,0,0,3-.38l-1.06-.53A1.67,1.67,0,0,1,404.19,71.07Z"/><path class="cls-6" d="M402.77,66.62l2.92,1.46a1.67,1.67,0,0,1,.89,1.16l1.06.53a2.7,2.7,0,0,0-1.49-2.61l-2.92-1.46a2.7,2.7,0,0,0-3,.38l1.06.53A1.67,1.67,0,0,1,402.77,66.62Z"/><path class="cls-6" d="M405.08,69.64a.51.51,0,0,1,.69-.23l6.83,3.41a.51.51,0,1,1-.46.92l-6.83-3.41A.51.51,0,0,1,405.08,69.64Z"/><path class="cls-6" d="M394.6,64.41a.51.51,0,0,1,.69-.23l6.83,3.41a.51.51,0,1,1-.46.92l-6.83-3.41A.51.51,0,0,1,394.6,64.41Z"/><path class="cls-6" d="M414.68,76.29l-2.92-1.46a1.67,1.67,0,0,1-.89-1.16l-1.06-.53a2.7,2.7,0,0,0,1.49,2.61l2.92,1.46a2.7,2.7,0,0,0,3-.38l-1.06-.53A1.67,1.67,0,0,1,414.68,76.29Z"/><path class="cls-6" d="M413.25,71.85l2.92,1.46a1.67,1.67,0,0,1,.89,1.16l1.06.53a2.7,2.7,0,0,0-1.49-2.61l-2.92-1.46a2.7,2.7,0,0,0-3,.38l1.06.53A1.67,1.67,0,0,1,413.25,71.85Z"/><path class="cls-6" d="M425.16,81.52l-2.92-1.46a1.67,1.67,0,0,1-.89-1.16l-1.06-.53A2.7,2.7,0,0,0,421.78,81l2.92,1.46a2.7,2.7,0,0,0,3-.38l-1.06-.53A1.67,1.67,0,0,1,425.16,81.52Z"/><path class="cls-6" d="M423.73,77.07l2.92,1.46a1.67,1.67,0,0,1,.89,1.16l1.06.53a2.7,2.7,0,0,0-1.49-2.61l-2.92-1.46a2.7,2.7,0,0,0-3,.38l1.06.53A1.67,1.67,0,0,1,423.73,77.07Z"/><path class="cls-6" d="M426,80.09a.51.51,0,0,1,.69-.23l6.83,3.41a.51.51,0,0,1-.46.92l-6.83-3.41A.51.51,0,0,1,426,80.09Z"/><path class="cls-6" d="M415.56,74.87a.51.51,0,0,1,.69-.23L423.08,78a.51.51,0,1,1-.46.92l-6.83-3.41A.51.51,0,0,1,415.56,74.87Z"/><path class="cls-6" d="M435.64,86.75l-2.92-1.46a1.67,1.67,0,0,1-.89-1.16l-1.06-.53a2.7,2.7,0,0,0,1.49,2.61l2.92,1.46a2.7,2.7,0,0,0,3-.38l-1.06-.53A1.67,1.67,0,0,1,435.64,86.75Z"/><path class="cls-6" d="M434.21,82.3l2.92,1.46a1.67,1.67,0,0,1,.89,1.16l1.06.53a2.7,2.7,0,0,0-1.49-2.61l-2.92-1.46a2.7,2.7,0,0,0-3,.38l1.06.53A1.67,1.67,0,0,1,434.21,82.3Z"/><path class="cls-6" d="M446.12,92l-2.92-1.46a1.67,1.67,0,0,1-.89-1.16l-1.06-.53a2.7,2.7,0,0,0,1.49,2.61l2.92,1.46a2.7,2.7,0,0,0,3-.38L447.58,92A1.67,1.67,0,0,1,446.12,92Z"/><path class="cls-6" d="M444.69,87.53,447.61,89a1.67,1.67,0,0,1,.89,1.16l1.06.53a2.7,2.7,0,0,0-1.49-2.61l-2.92-1.46a2.7,2.7,0,0,0-3,.38l1.06.53A1.67,1.67,0,0,1,444.69,87.53Z"/><path class="cls-6" d="M447,90.55a.51.51,0,0,1,.69-.23l6.83,3.41a.51.51,0,0,1-.46.92l-6.83-3.41A.51.51,0,0,1,447,90.55Z"/><path class="cls-6" d="M436.52,85.32a.51.51,0,0,1,.69-.23L444,88.5a.51.51,0,1,1-.46.92L436.75,86A.51.51,0,0,1,436.52,85.32Z"/><g class="cls-1"><polygon class="cls-3" points="204.71 84.64 181.5 98.13 158.13 84.64 181.34 71.14 204.71 84.64"/><polygon class="cls-4" points="204.71 84.64 204.65 108.61 181.43 122.1 181.5 98.13 204.71 84.64"/><polygon class="cls-5" points="181.5 98.13 181.43 122.1 158.06 108.61 158.13 84.64 181.5 98.13"/></g><g class="cls-1"><polygon class="cls-3" points="486 84.64 462.79 98.13 439.42 84.64 462.63 71.14 486 84.64"/><polygon class="cls-4" points="486 84.64 485.93 108.61 462.72 122.1 462.79 98.13 486 84.64"/><polygon class="cls-5" points="462.79 98.13 462.72 122.1 439.35 108.61 439.42 84.64 462.79 98.13"/></g><path class="cls-6" d="M440,192.74h3.26a1.67,1.67,0,0,1,1.31.64h1.18a2.7,2.7,0,0,0-2.49-1.67H440a2.7,2.7,0,0,0-2.49,1.67h1.18A1.67,1.67,0,0,1,440,192.74Z"/><path class="cls-6" d="M443.29,196.09H440a1.67,1.67,0,0,1-1.31-.64h-1.18a2.7,2.7,0,0,0,2.49,1.67h3.26a2.7,2.7,0,0,0,2.49-1.67H444.6A1.67,1.67,0,0,1,443.29,196.09Z"/><path class="cls-6" d="M439.87,194.42a.51.51,0,0,1-.51.51h-7.63a.51.51,0,0,1,0-1h7.63A.51.51,0,0,1,439.87,194.42Z"/><path class="cls-6" d="M451.58,194.42a.51.51,0,0,1-.51.51h-7.63a.51.51,0,0,1,0-1h7.63A.51.51,0,0,1,451.58,194.42Z"/><path class="cls-6" d="M428.31,192.74h3.26a1.67,1.67,0,0,1,1.31.64h1.18a2.7,2.7,0,0,0-2.49-1.67h-3.26a2.7,2.7,0,0,0-2.49,1.67H427A1.67,1.67,0,0,1,428.31,192.74Z"/><path class="cls-6" d="M431.57,196.09h-3.26a1.67,1.67,0,0,1-1.31-.64h-1.18a2.7,2.7,0,0,0,2.49,1.67h3.26a2.7,2.7,0,0,0,2.49-1.67h-1.18A1.67,1.67,0,0,1,431.57,196.09Z"/><path class="cls-6" d="M416.6,192.74h3.26a1.67,1.67,0,0,1,1.31.64h1.18a2.7,2.7,0,0,0-2.49-1.67H416.6a2.7,2.7,0,0,0-2.49,1.67h1.18A1.67,1.67,0,0,1,416.6,192.74Z"/><path class="cls-6" d="M419.86,196.09H416.6a1.67,1.67,0,0,1-1.31-.64H414.1a2.7,2.7,0,0,0,2.49,1.67h3.26a2.7,2.7,0,0,0,2.49-1.67h-1.18A1.67,1.67,0,0,1,419.86,196.09Z"/><path class="cls-6" d="M416.44,194.42a.51.51,0,0,1-.51.51H408.3a.51.51,0,0,1,0-1h7.63A.51.51,0,0,1,416.44,194.42Z"/><path class="cls-6" d="M428.15,194.42a.51.51,0,0,1-.51.51H420a.51.51,0,0,1,0-1h7.63A.51.51,0,0,1,428.15,194.42Z"/><path class="cls-6" d="M404.89,192.74h3.26a1.67,1.67,0,0,1,1.31.64h1.18a2.7,2.7,0,0,0-2.49-1.67h-3.26a2.7,2.7,0,0,0-2.49,1.67h1.18A1.67,1.67,0,0,1,404.89,192.74Z"/><path class="cls-6" d="M408.15,196.09h-3.26a1.67,1.67,0,0,1-1.31-.64h-1.18a2.7,2.7,0,0,0,2.49,1.67h3.26a2.7,2.7,0,0,0,2.49-1.67h-1.18A1.67,1.67,0,0,1,408.15,196.09Z"/><path class="cls-6" d="M393.18,192.74h3.26a1.67,1.67,0,0,1,1.31.64h1.18a2.7,2.7,0,0,0-2.49-1.67h-3.26a2.7,2.7,0,0,0-2.49,1.67h1.18A1.67,1.67,0,0,1,393.18,192.74Z"/><path class="cls-6" d="M396.44,196.09h-3.26a1.67,1.67,0,0,1-1.31-.64h-1.18a2.7,2.7,0,0,0,2.49,1.67h3.26a2.7,2.7,0,0,0,2.49-1.67h-1.18A1.67,1.67,0,0,1,396.44,196.09Z"/><path class="cls-6" d="M393,194.42a.51.51,0,0,1-.51.51h-7.63a.51.51,0,0,1,0-1h7.63A.51.51,0,0,1,393,194.42Z"/><path class="cls-6" d="M404.73,194.42a.51.51,0,0,1-.51.51h-7.63a.51.51,0,0,1,0-1h7.63A.51.51,0,0,1,404.73,194.42Z"/><path class="cls-6" d="M381.46,192.74h3.26a1.67,1.67,0,0,1,1.31.64h1.18a2.7,2.7,0,0,0-2.49-1.67h-3.26a2.7,2.7,0,0,0-2.49,1.67h1.18A1.67,1.67,0,0,1,381.46,192.74Z"/><path class="cls-6" d="M384.73,196.09h-3.26a1.67,1.67,0,0,1-1.31-.64H379a2.7,2.7,0,0,0,2.49,1.67h3.26a2.7,2.7,0,0,0,2.49-1.67H386A1.67,1.67,0,0,1,384.73,196.09Z"/><path class="cls-6" d="M369.75,192.74H373a1.67,1.67,0,0,1,1.31.64h1.18a2.7,2.7,0,0,0-2.49-1.67h-3.26a2.7,2.7,0,0,0-2.49,1.67h1.18A1.67,1.67,0,0,1,369.75,192.74Z"/><path class="cls-6" d="M373,196.09h-3.26a1.67,1.67,0,0,1-1.31-.64h-1.18a2.7,2.7,0,0,0,2.49,1.67H373a2.7,2.7,0,0,0,2.49-1.67h-1.18A1.67,1.67,0,0,1,373,196.09Z"/><path class="cls-6" d="M369.6,194.42a.51.51,0,0,1-.51.51h-7.63a.51.51,0,1,1,0-1h7.63A.51.51,0,0,1,369.6,194.42Z"/><path class="cls-6" d="M381.31,194.42a.51.51,0,0,1-.51.51h-7.63a.51.51,0,0,1,0-1h7.63A.51.51,0,0,1,381.31,194.42Z"/><path class="cls-6" d="M358,192.74h3.26a1.67,1.67,0,0,1,1.31.64h1.18a2.7,2.7,0,0,0-2.49-1.67H358a2.7,2.7,0,0,0-2.49,1.67h1.18A1.67,1.67,0,0,1,358,192.74Z"/><path class="cls-6" d="M361.3,196.09H358a1.67,1.67,0,0,1-1.31-.64h-1.18a2.7,2.7,0,0,0,2.49,1.67h3.26a2.7,2.7,0,0,0,2.49-1.67h-1.18A1.67,1.67,0,0,1,361.3,196.09Z"/><path class="cls-6" d="M346.33,192.74h3.26a1.67,1.67,0,0,1,1.31.64h1.18a2.7,2.7,0,0,0-2.49-1.67h-3.26a2.7,2.7,0,0,0-2.49,1.67H345A1.67,1.67,0,0,1,346.33,192.74Z"/><path class="cls-6" d="M349.59,196.09h-3.26a1.67,1.67,0,0,1-1.31-.64h-1.18a2.7,2.7,0,0,0,2.49,1.67h3.26a2.7,2.7,0,0,0,2.49-1.67h-1.18A1.67,1.67,0,0,1,349.59,196.09Z"/><path class="cls-6" d="M346.17,194.42a.51.51,0,0,1-.51.51H338a.51.51,0,0,1,0-1h7.63A.51.51,0,0,1,346.17,194.42Z"/><path class="cls-6" d="M357.89,194.42a.51.51,0,0,1-.51.51h-7.63a.51.51,0,0,1,0-1h7.63A.51.51,0,0,1,357.89,194.42Z"/><ellipse class="cls-7" cx="323.41" cy="105.85" rx="39.94" ry="39.96"/><ellipse class="cls-8" cx="323.41" cy="105.85" rx="31.11" ry="31.12"/><path class="cls-9" d="M321.11,122.16a30.71,30.71,0,0,1-10.9-2.53v-8.58a37.23,37.23,0,0,0,6.51,2.54,22.53,22.53,0,0,0,6.17,1,7.34,7.34,0,0,0,3.22-.53,1.84,1.84,0,0,0,1-1.77,1.8,1.8,0,0,0-.74-1.45,11.39,11.39,0,0,0-2.45-1.34q-1.72-.75-4.64-1.81A21,21,0,0,1,314,105a9.51,9.51,0,0,1-2.93-3.38,10.56,10.56,0,0,1-.92-4.66,8.4,8.4,0,0,1,2.74-6.66q2.74-2.4,8.21-3V83.78h5.35v3.49a30.32,30.32,0,0,1,10.36,2.53l-3.07,7.36A24.1,24.1,0,0,0,324,94.73a6,6,0,0,0-2.91.5,1.63,1.63,0,0,0-.84,1.49,1.83,1.83,0,0,0,.61,1.41A8.54,8.54,0,0,0,323,99.37q1.5.68,4.16,1.59,5.4,1.91,7.75,4.35a8.69,8.69,0,0,1,2.35,6.29,9.47,9.47,0,0,1-2.75,7.05q-2.75,2.71-8,3.36v5h-5.35Z"/><g class="cls-1"><polygon class="cls-10" points="112.56 196.23 117.32 289.09 6.45 353.1 1.69 260.24 112.56 196.23"/><polygon class="cls-4" points="112.56 196.23 117.32 289.09 6.45 353.1 1.69 260.24 112.56 196.23"/><path class="cls-5" d="M6.45,353.1,4.62,352a3.14,3.14,0,0,1-1.56-2.71L0,259.06l1.69,1.17Z"/><polygon class="cls-3" points="1.69 260.24 0 259.06 110.86 195.05 112.56 196.23 1.69 260.24"/></g><g class="cls-1"><polygon class="cls-11" points="191.69 333.18 80.63 397.72 6.19 353.1 117.24 288.56 191.69 333.18"/><polygon class="cls-4" points="22.74 353.21 117.17 298.33 155.22 321.51 60.79 376.39 22.74 353.21"/><path class="cls-4" d="M103.94,355.2l26.71-15.35a2.54,2.54,0,0,1,2.58,0l11.1,6.74a2.54,2.54,0,0,1-.05,4.37l-26.71,15.35a2.54,2.54,0,0,1-2.58,0l-11.1-6.74A2.54,2.54,0,0,1,103.94,355.2Z"/><polygon class="cls-3" points="191.69 333.18 191.67 335.46 80.62 400 80.63 397.72 191.69 333.18"/><path class="cls-5" d="M80.63,397.72V400L7.75,357.93a3.14,3.14,0,0,1-1.57-2.73v-2.1Z"/></g><polygon class="cls-8" points="5.35 261.09 109.09 201.19 113.66 285.83 9.92 345.73 5.35 261.09"/><path class="cls-7" d="M76.2,264.71c0-2.34-1.66-3.29-3.7-2.11l-1.77,1,0-13.33c0-6.61-4.72-9.29-10.48-6s-10.42,11.41-10.4,18l0,13.33-1.77,1a8.11,8.11,0,0,0-3.68,6.37l.11,27.51L76.27,292.2Zm-16-15c3.19-1.84,5.8-.35,5.81,3.31l0,13.33L54.49,273l0-13.33A12.74,12.74,0,0,1,60.22,249.67Zm1.67,42.6-3.09,1.81,0-7.44c-.92-.05-1.56-.77-1.64-2,0-.08,0-.17,0-.25a7,7,0,0,1,3.17-5.49c1.77-1,3.19-.2,3.2,1.82q0,.13,0,.26a7,7,0,0,1-1.62,3.88Z"/><path class="cls-12" d="M436.84,345.73c-6.22,2.1-7.93,3.8-10,10-2.1-6.22-3.8-7.93-10-10,6.22-2.1,7.93-3.8,10-10C428.91,341.93,430.62,343.63,436.84,345.73Z"/><path class="cls-12" d="M155.08,45.53c-6.22,2.1-7.93,3.8-10,10-2.1-6.22-3.8-7.93-10-10,6.22-2.1,7.93-3.8,10-10C147.16,41.73,148.86,43.43,155.08,45.53Z"/><path class="cls-12" d="M62.62,158.6c-6.22,2.1-7.93,3.8-10,10-2.1-6.22-3.8-7.93-10-10,6.22-2.1,7.93-3.8,10-10C54.7,154.79,56.4,156.5,62.62,158.6Z"/><path class="cls-13" d="M399.61,381c-11.81,4-15,7.22-19,19-4-11.81-7.22-15-19-19,11.81-4,15-7.22,19-19C384.57,373.75,387.8,377,399.61,381Z"/><path class="cls-13" d="M121.69,19c-11.81,4-15,7.22-19,19-4-11.81-7.22-15-19-19,11.81-4,15-7.22,19-19C106.65,11.81,109.88,15,121.69,19Z"/></g></g></svg>